<svg width="106" height="68" viewBox="0 0 106 68" fill="none" xmlns="http://www.w3.org/2000/svg">
<path d="M49.2857 39.6996C48.8146 39.7466 47.9952 39.7521 47.8204 39.2386C47.7713 39.1121 47.7275 39.0083 47.6627 38.829C47.1746 37.5242 46.0321 34.4653 43.2536 34.2093C42.5461 34.1425 41.8351 34.1176 41.1246 34.1341C41.2643 32.9815 41.0442 31.8149 40.4924 30.7836C40.3043 30.4756 39.9251 30.3278 39.5675 30.4235C39.4037 30.4682 37.8676 30.9197 35.0745 33.0522H35.0749C33.2383 34.4572 31.7433 36.2329 30.695 38.2539C29.815 39.9336 29.9901 43.2788 30.1066 45.4927L30.1367 46.0946H30.1363C30.1569 46.5302 30.54 46.8673 30.9924 46.8478C31.4444 46.828 31.7947 46.4591 31.7741 46.0238L31.7399 45.4154C31.6454 43.6183 31.4706 40.2734 32.1553 38.9661C33.0966 37.1486 34.4397 35.5514 36.09 34.2869C37.0956 33.4911 38.1843 32.798 39.3389 32.2194C39.6188 33.1508 39.8077 34.9981 38.0606 37.1361H38.0602C37.7807 37.4783 37.842 37.9737 38.1973 38.2433C39.3983 39.1183 40.4596 36.3337 40.7403 35.7294V35.729C41.5258 35.6875 42.3137 35.7052 43.097 35.7818C45.0513 36.0411 45.7812 38.5561 46.2744 39.7597C46.6609 40.8507 47.7598 41.406 49.304 41.2842C49.8805 43.4695 49.4262 45.9633 46.8756 46.1958C45.5916 46.2842 44.3559 46.7019 43.2966 47.4064C42.2368 48.1105 41.393 49.075 40.8515 50.1998C40.6858 50.5981 40.8812 51.0506 41.2913 51.2186C41.701 51.3866 42.1751 51.208 42.3583 50.8171C43.2219 49.0802 44.9807 47.9184 46.9739 47.7677C47.8866 47.7171 48.7598 47.3918 49.4703 46.8377C50.1809 46.2836 50.6931 45.5289 50.9345 44.6795C51.2468 43.5551 51.5743 39.4946 49.2857 39.6997L49.2857 39.6996Z" fill="black" fill-opacity="0.53"/>
<path d="M52.7557 25.5465C52.3124 25.6316 52.0245 26.0467 52.1125 26.4736C52.5972 28.8148 53.4997 33.1716 52.4232 36.0863H52.4228C52.2713 36.4966 52.494 36.9477 52.9202 37.0936C53.3463 37.2396 53.8146 37.0254 53.9662 36.6151C55.1939 33.2895 54.2342 28.6552 53.7183 26.1658C53.6768 25.9605 53.5515 25.7793 53.3706 25.6634C53.1897 25.5472 52.9685 25.5054 52.7556 25.5468L52.7557 25.5465Z" fill="#090909" fill-opacity="0.54"/>
<path d="M72.1159 25.4141C70.5204 25.0044 66.2463 23.7 64.864 22.4083C64.7418 21.4622 64.1828 18.522 61.9018 17.6239C51.6563 13.5305 44.6668 17.5836 42.4305 26.5502H42.4309C42.3742 26.7541 42.405 26.9712 42.5162 27.1534C42.6274 27.3353 42.8094 27.4666 43.0223 27.5183C43.2348 27.5697 43.4598 27.537 43.6472 27.4274C43.8345 27.3177 43.9685 27.1402 44.0188 26.9349C44.5702 24.6413 45.6402 22.4933 47.1527 20.6439C51.1487 16.0125 57.7199 17.6786 61.2809 19.0835C62.7162 19.6497 63.1967 21.9653 63.2603 22.8084C63.9305 24.7646 69.6119 26.3188 71.0891 26.7761H71.0895C71.0811 26.8645 71.0681 26.9521 71.0502 27.0391L69.8782 26.7856C69.4369 26.6903 68.9986 26.9576 68.8996 27.3827C68.8006 27.8077 69.0782 28.2295 69.5195 28.3248L70.748 28.5878C70.6577 30.6183 69.4795 32.4583 67.6361 33.4473H60.9985C60.401 33.4484 59.8181 33.6234 59.3257 33.9486C58.8333 34.2743 58.4544 34.7353 58.2386 35.2718C56.8117 38.9864 57.0524 43.1053 58.9023 46.643C59.1228 47.0233 59.6216 47.1593 60.0165 46.9473C60.4114 46.735 60.5531 46.2546 60.3326 45.8743C58.7417 42.7384 58.5383 39.1154 59.7686 35.8325C59.9662 35.3444 60.4544 35.0228 60.9986 35.0228H67.8326C67.9518 35.0228 68.0695 34.9975 68.1776 34.9491C69.4761 34.3139 70.561 33.3377 71.3066 32.1329C72.0522 30.9282 72.4285 29.545 72.3911 28.1429C72.5511 27.8602 73.265 25.7181 72.1158 25.4145L72.1159 25.4141Z" fill="black" fill-opacity="0.53"/>
<path d="M6.56135 54.35H8.66135L12.5763 65H10.4463L9.45635 62.345H5.73635L4.76135 65H2.63135L6.56135 54.35ZM9.08135 60.89L7.61135 56.495L6.08135 60.89H9.08135ZM13.1905 54.05H15.2005V62.48C15.2005 62.84 15.2605 63.085 15.3805 63.215C15.5005 63.335 15.6655 63.395 15.8755 63.395C16.0355 63.395 16.2005 63.375 16.3705 63.335C16.5405 63.295 16.6905 63.245 16.8205 63.185L17.0905 64.715C16.8205 64.845 16.5055 64.945 16.1455 65.015C15.7855 65.085 15.4605 65.12 15.1705 65.12C14.5405 65.12 14.0505 64.955 13.7005 64.625C13.3605 64.285 13.1905 63.805 13.1905 63.185V54.05ZM21.2963 65.15C20.6563 65.15 20.0813 65.045 19.5713 64.835C19.0613 64.615 18.6263 64.315 18.2663 63.935C17.9163 63.555 17.6463 63.12 17.4563 62.63C17.2663 62.14 17.1713 61.625 17.1713 61.085C17.1713 60.535 17.2663 60.015 17.4563 59.525C17.6463 59.035 17.9163 58.6 18.2663 58.22C18.6263 57.84 19.0613 57.545 19.5713 57.335C20.0813 57.115 20.6563 57.005 21.2963 57.005C21.9363 57.005 22.5063 57.115 23.0063 57.335C23.5163 57.545 23.9513 57.84 24.3113 58.22C24.6713 58.6 24.9413 59.035 25.1213 59.525C25.3113 60.015 25.4063 60.535 25.4063 61.085C25.4063 61.625 25.3113 62.14 25.1213 62.63C24.9413 63.12 24.6713 63.555 24.3113 63.935C23.9613 64.315 23.5313 64.615 23.0213 64.835C22.5113 65.045 21.9363 65.15 21.2963 65.15ZM19.2413 61.085C19.2413 61.545 19.3313 61.955 19.5113 62.315C19.6913 62.665 19.9363 62.94 20.2463 63.14C20.5563 63.34 20.9063 63.44 21.2963 63.44C21.6763 63.44 22.0213 63.34 22.3313 63.14C22.6413 62.93 22.8863 62.65 23.0663 62.3C23.2563 61.94 23.3513 61.53 23.3513 61.07C23.3513 60.62 23.2563 60.215 23.0663 59.855C22.8863 59.495 22.6413 59.215 22.3313 59.015C22.0213 58.815 21.6763 58.715 21.2963 58.715C20.9063 58.715 20.5563 58.82 20.2463 59.03C19.9363 59.23 19.6913 59.51 19.5113 59.87C19.3313 60.22 19.2413 60.625 19.2413 61.085ZM25.8179 67.94C25.4479 67.94 25.0929 67.88 24.7529 67.76C24.4129 67.65 24.1029 67.475 23.8229 67.235L24.6929 65.87C24.8029 65.99 24.9379 66.075 25.0979 66.125C25.2579 66.175 25.4179 66.2 25.5779 66.2C25.7579 66.2 25.9179 66.155 26.0579 66.065C26.2079 65.985 26.3229 65.87 26.4029 65.72C26.4929 65.57 26.5379 65.4 26.5379 65.21V57.14H28.5479V65.06C28.5479 65.62 28.4229 66.12 28.1729 66.56C27.9329 67 27.6079 67.34 27.1979 67.58C26.7979 67.82 26.3379 67.94 25.8179 67.94ZM26.5379 56.045V54.05H28.5479V56.045H26.5379ZM29.5341 62.675C29.5341 62.165 29.6741 61.72 29.9541 61.34C30.2441 60.95 30.6441 60.65 31.1541 60.44C31.6641 60.23 32.2491 60.125 32.9091 60.125C33.2391 60.125 33.5741 60.15 33.9141 60.2C34.2541 60.25 34.5491 60.33 34.7991 60.44V60.02C34.7991 59.52 34.6491 59.135 34.3491 58.865C34.0591 58.595 33.6241 58.46 33.0441 58.46C32.6141 58.46 32.2041 58.535 31.8141 58.685C31.4241 58.835 31.0141 59.055 30.5841 59.345L29.9391 58.025C30.4591 57.685 30.9891 57.43 31.5291 57.26C32.0791 57.09 32.6541 57.005 33.2541 57.005C34.3741 57.005 35.2441 57.285 35.8641 57.845C36.4941 58.405 36.8091 59.205 36.8091 60.245V62.75C36.8091 62.96 36.8441 63.11 36.9141 63.2C36.9941 63.29 37.1191 63.345 37.2891 63.365V65C37.1091 65.03 36.9441 65.055 36.7941 65.075C36.6541 65.095 36.5341 65.105 36.4341 65.105C36.0341 65.105 35.7291 65.015 35.5191 64.835C35.3191 64.655 35.1941 64.435 35.1441 64.175L35.0991 63.77C34.7591 64.21 34.3341 64.55 33.8241 64.79C33.3141 65.03 32.7941 65.15 32.2641 65.15C31.7441 65.15 31.2741 65.045 30.8541 64.835C30.4441 64.615 30.1191 64.32 29.8791 63.95C29.6491 63.57 29.5341 63.145 29.5341 62.675ZM34.4241 63.08C34.5341 62.96 34.6241 62.84 34.6941 62.72C34.7641 62.6 34.7991 62.49 34.7991 62.39V61.595C34.5591 61.495 34.2991 61.42 34.0191 61.37C33.7391 61.31 33.4741 61.28 33.2241 61.28C32.7041 61.28 32.2741 61.395 31.9341 61.625C31.6041 61.845 31.4391 62.14 31.4391 62.51C31.4391 62.71 31.4941 62.9 31.6041 63.08C31.7141 63.26 31.8741 63.405 32.0841 63.515C32.2941 63.625 32.5441 63.68 32.8341 63.68C33.1341 63.68 33.4291 63.625 33.7191 63.515C34.0091 63.395 34.2441 63.25 34.4241 63.08ZM47.2674 65V58.01L44.5374 63.215H43.3824L40.6524 58.01V65H38.5824V54.35H40.8024L43.9524 60.41L47.1324 54.35H49.3374V65H47.2674ZM50.438 62.675C50.438 62.165 50.578 61.72 50.858 61.34C51.148 60.95 51.548 60.65 52.058 60.44C52.568 60.23 53.153 60.125 53.813 60.125C54.143 60.125 54.478 60.15 54.818 60.2C55.158 60.25 55.453 60.33 55.703 60.44V60.02C55.703 59.52 55.553 59.135 55.253 58.865C54.963 58.595 54.528 58.46 53.948 58.46C53.518 58.46 53.108 58.535 52.718 58.685C52.328 58.835 51.918 59.055 51.488 59.345L50.843 58.025C51.363 57.685 51.893 57.43 52.433 57.26C52.983 57.09 53.558 57.005 54.158 57.005C55.278 57.005 56.148 57.285 56.768 57.845C57.398 58.405 57.713 59.205 57.713 60.245V62.75C57.713 62.96 57.748 63.11 57.818 63.2C57.898 63.29 58.023 63.345 58.193 63.365V65C58.013 65.03 57.848 65.055 57.698 65.075C57.558 65.095 57.438 65.105 57.338 65.105C56.938 65.105 56.633 65.015 56.423 64.835C56.223 64.655 56.098 64.435 56.048 64.175L56.003 63.77C55.663 64.21 55.238 64.55 54.728 64.79C54.218 65.03 53.698 65.15 53.168 65.15C52.648 65.15 52.178 65.045 51.758 64.835C51.348 64.615 51.023 64.32 50.783 63.95C50.553 63.57 50.438 63.145 50.438 62.675ZM55.328 63.08C55.438 62.96 55.528 62.84 55.598 62.72C55.668 62.6 55.703 62.49 55.703 62.39V61.595C55.463 61.495 55.203 61.42 54.923 61.37C54.643 61.31 54.378 61.28 54.128 61.28C53.608 61.28 53.178 61.395 52.838 61.625C52.508 61.845 52.343 62.14 52.343 62.51C52.343 62.71 52.398 62.9 52.508 63.08C52.618 63.26 52.778 63.405 52.988 63.515C53.198 63.625 53.448 63.68 53.738 63.68C54.038 63.68 54.333 63.625 54.623 63.515C54.913 63.395 55.148 63.25 55.328 63.08ZM62.1863 65.15C61.5163 65.15 60.8763 65.04 60.2663 64.82C59.6563 64.6 59.1313 64.275 58.6913 63.845L59.4113 62.54C59.8813 62.92 60.3413 63.2 60.7913 63.38C61.2513 63.56 61.6913 63.65 62.1113 63.65C62.5013 63.65 62.8113 63.58 63.0413 63.44C63.2813 63.3 63.4013 63.09 63.4013 62.81C63.4013 62.62 63.3363 62.475 63.2063 62.375C63.0763 62.265 62.8863 62.17 62.6363 62.09C62.3963 62.01 62.1013 61.92 61.7513 61.82C61.1713 61.63 60.6863 61.445 60.2963 61.265C59.9063 61.085 59.6113 60.86 59.4113 60.59C59.2213 60.31 59.1263 59.955 59.1263 59.525C59.1263 59.005 59.2563 58.56 59.5163 58.19C59.7863 57.81 60.1563 57.515 60.6263 57.305C61.1063 57.095 61.6663 56.99 62.3063 56.99C62.8663 56.99 63.3963 57.08 63.8963 57.26C64.3963 57.43 64.8513 57.71 65.2613 58.1L64.4513 59.375C64.0513 59.065 63.6713 58.84 63.3113 58.7C62.9513 58.55 62.5863 58.475 62.2163 58.475C62.0063 58.475 61.8063 58.5 61.6163 58.55C61.4363 58.6 61.2863 58.685 61.1663 58.805C61.0563 58.915 61.0013 59.075 61.0013 59.285C61.0013 59.475 61.0513 59.625 61.1513 59.735C61.2613 59.835 61.4213 59.925 61.6313 60.005C61.8513 60.085 62.1163 60.175 62.4263 60.275C63.0563 60.455 63.5863 60.64 64.0163 60.83C64.4563 61.02 64.7863 61.255 65.0063 61.535C65.2263 61.805 65.3363 62.18 65.3363 62.66C65.3363 63.44 65.0513 64.05 64.4813 64.49C63.9113 64.93 63.1463 65.15 62.1863 65.15ZM70.0634 65.15C69.4234 65.15 68.8484 65.045 68.3384 64.835C67.8284 64.615 67.3934 64.315 67.0334 63.935C66.6734 63.545 66.3934 63.105 66.1934 62.615C66.0034 62.125 65.9084 61.61 65.9084 61.07C65.9084 60.33 66.0734 59.655 66.4034 59.045C66.7434 58.425 67.2234 57.93 67.8434 57.56C68.4634 57.19 69.1984 57.005 70.0484 57.005C70.8984 57.005 71.6284 57.19 72.2384 57.56C72.8484 57.93 73.3034 58.415 73.6034 59.015L71.6384 59.615C71.4684 59.325 71.2434 59.105 70.9634 58.955C70.6834 58.795 70.3734 58.715 70.0334 58.715C69.6534 58.715 69.3034 58.815 68.9834 59.015C68.6734 59.205 68.4284 59.48 68.2484 59.84C68.0684 60.19 67.9784 60.6 67.9784 61.07C67.9784 61.53 68.0684 61.94 68.2484 62.3C68.4384 62.65 68.6884 62.93 68.9984 63.14C69.3084 63.34 69.6534 63.44 70.0334 63.44C70.2734 63.44 70.4984 63.4 70.7084 63.32C70.9284 63.24 71.1234 63.13 71.2934 62.99C71.4634 62.85 71.5884 62.69 71.6684 62.51L73.6334 63.11C73.4534 63.5 73.1884 63.85 72.8384 64.16C72.4984 64.47 72.0934 64.715 71.6234 64.895C71.1634 65.065 70.6434 65.15 70.0634 65.15ZM78.1269 65.15C77.4869 65.15 76.9119 65.045 76.4019 64.835C75.8919 64.615 75.4569 64.315 75.0969 63.935C74.7469 63.555 74.4769 63.12 74.2869 62.63C74.0969 62.14 74.0019 61.625 74.0019 61.085C74.0019 60.535 74.0969 60.015 74.2869 59.525C74.4769 59.035 74.7469 58.6 75.0969 58.22C75.4569 57.84 75.8919 57.545 76.4019 57.335C76.9119 57.115 77.4869 57.005 78.1269 57.005C78.7669 57.005 79.3369 57.115 79.8369 57.335C80.3469 57.545 80.7819 57.84 81.1419 58.22C81.5019 58.6 81.7719 59.035 81.9519 59.525C82.1419 60.015 82.2369 60.535 82.2369 61.085C82.2369 61.625 82.1419 62.14 81.9519 62.63C81.7719 63.12 81.5019 63.555 81.1419 63.935C80.7919 64.315 80.3619 64.615 79.8519 64.835C79.3419 65.045 78.7669 65.15 78.1269 65.15ZM76.0719 61.085C76.0719 61.545 76.1619 61.955 76.3419 62.315C76.5219 62.665 76.7669 62.94 77.0769 63.14C77.3869 63.34 77.7369 63.44 78.1269 63.44C78.5069 63.44 78.8519 63.34 79.1619 63.14C79.4719 62.93 79.7169 62.65 79.8969 62.3C80.0869 61.94 80.1819 61.53 80.1819 61.07C80.1819 60.62 80.0869 60.215 79.8969 59.855C79.7169 59.495 79.4719 59.215 79.1619 59.015C78.8519 58.815 78.5069 58.715 78.1269 58.715C77.7369 58.715 77.3869 58.82 77.0769 59.03C76.7669 59.23 76.5219 59.51 76.3419 59.87C76.1619 60.22 76.0719 60.625 76.0719 61.085ZM87.8864 64.595C87.7164 64.665 87.5114 64.745 87.2714 64.835C87.0314 64.925 86.7714 64.995 86.4914 65.045C86.2214 65.105 85.9464 65.135 85.6664 65.135C85.2964 65.135 84.9564 65.07 84.6464 64.94C84.3364 64.81 84.0864 64.605 83.8964 64.325C83.7164 64.035 83.6264 63.66 83.6264 63.2V58.685H82.5914V57.14H83.6264V54.59H85.6364V57.14H87.2864V58.685H85.6364V62.525C85.6464 62.795 85.7214 62.99 85.8614 63.11C86.0014 63.23 86.1764 63.29 86.3864 63.29C86.5964 63.29 86.8014 63.255 87.0014 63.185C87.2014 63.115 87.3614 63.055 87.4814 63.005L87.8864 64.595ZM88.0933 62.675C88.0933 62.165 88.2333 61.72 88.5133 61.34C88.8033 60.95 89.2033 60.65 89.7133 60.44C90.2233 60.23 90.8083 60.125 91.4683 60.125C91.7983 60.125 92.1333 60.15 92.4733 60.2C92.8133 60.25 93.1083 60.33 93.3583 60.44V60.02C93.3583 59.52 93.2083 59.135 92.9083 58.865C92.6183 58.595 92.1833 58.46 91.6033 58.46C91.1733 58.46 90.7633 58.535 90.3733 58.685C89.9833 58.835 89.5733 59.055 89.1433 59.345L88.4983 58.025C89.0183 57.685 89.5483 57.43 90.0883 57.26C90.6383 57.09 91.2133 57.005 91.8133 57.005C92.9333 57.005 93.8033 57.285 94.4233 57.845C95.0533 58.405 95.3683 59.205 95.3683 60.245V62.75C95.3683 62.96 95.4033 63.11 95.4733 63.2C95.5533 63.29 95.6783 63.345 95.8483 63.365V65C95.6683 65.03 95.5033 65.055 95.3533 65.075C95.2133 65.095 95.0933 65.105 94.9933 65.105C94.5933 65.105 94.2883 65.015 94.0783 64.835C93.8783 64.655 93.7533 64.435 93.7033 64.175L93.6583 63.77C93.3183 64.21 92.8933 64.55 92.3833 64.79C91.8733 65.03 91.3533 65.15 90.8233 65.15C90.3033 65.15 89.8333 65.045 89.4133 64.835C89.0033 64.615 88.6783 64.32 88.4383 63.95C88.2083 63.57 88.0933 63.145 88.0933 62.675ZM92.9833 63.08C93.0933 62.96 93.1833 62.84 93.2533 62.72C93.3233 62.6 93.3583 62.49 93.3583 62.39V61.595C93.1183 61.495 92.8583 61.42 92.5783 61.37C92.2983 61.31 92.0333 61.28 91.7833 61.28C91.2633 61.28 90.8333 61.395 90.4933 61.625C90.1633 61.845 89.9983 62.14 89.9983 62.51C89.9983 62.71 90.0533 62.9 90.1633 63.08C90.2733 63.26 90.4333 63.405 90.6433 63.515C90.8533 63.625 91.1033 63.68 91.3933 63.68C91.6933 63.68 91.9883 63.625 92.2783 63.515C92.5683 63.395 92.8033 63.25 92.9833 63.08ZM99.8415 65.15C99.1715 65.15 98.5315 65.04 97.9215 64.82C97.3115 64.6 96.7865 64.275 96.3465 63.845L97.0665 62.54C97.5365 62.92 97.9965 63.2 98.4465 63.38C98.9065 63.56 99.3465 63.65 99.7665 63.65C100.157 63.65 100.467 63.58 100.697 63.44C100.937 63.3 101.057 63.09 101.057 62.81C101.057 62.62 100.992 62.475 100.862 62.375C100.732 62.265 100.542 62.17 100.292 62.09C100.052 62.01 99.7565 61.92 99.4065 61.82C98.8265 61.63 98.3415 61.445 97.9515 61.265C97.5615 61.085 97.2665 60.86 97.0665 60.59C96.8765 60.31 96.7815 59.955 96.7815 59.525C96.7815 59.005 96.9115 58.56 97.1715 58.19C97.4415 57.81 97.8115 57.515 98.2815 57.305C98.7615 57.095 99.3215 56.99 99.9615 56.99C100.522 56.99 101.052 57.08 101.552 57.26C102.052 57.43 102.507 57.71 102.917 58.1L102.107 59.375C101.707 59.065 101.327 58.84 100.967 58.7C100.607 58.55 100.242 58.475 99.8715 58.475C99.6615 58.475 99.4615 58.5 99.2715 58.55C99.0915 58.6 98.9415 58.685 98.8215 58.805C98.7115 58.915 98.6565 59.075 98.6565 59.285C98.6565 59.475 98.7065 59.625 98.8065 59.735C98.9165 59.835 99.0765 59.925 99.2865 60.005C99.5065 60.085 99.7715 60.175 100.082 60.275C100.712 60.455 101.242 60.64 101.672 60.83C102.112 61.02 102.442 61.255 102.662 61.535C102.882 61.805 102.992 62.18 102.992 62.66C102.992 63.44 102.707 64.05 102.137 64.49C101.567 64.93 100.802 65.15 99.8415 65.15Z" fill="black" fill-opacity="0.54"/>
<ellipse cx="56.5" cy="28" rx="14.5" ry="14" fill="#6E8D6A" fill-opacity="0.26"/>
<ellipse cx="37.5" cy="40.5" rx="12.5" ry="11.5" fill="#7EB6BE" fill-opacity="0.24"/>
<path d="M77.6372 14.914L53.97 0.12876C53.6854 -0.0429199 53.3144 -0.0429199 53.0299 0.12876L29.3656 14.9123C29.1409 15.0535 29.005 15.2833 29 15.5301V19.2555C29 19.6667 29.3698 20 29.8257 20C30.2819 20 30.6517 19.6667 30.6517 19.2555V15.9185L53.5 1.64625L76.3483 15.9185V19.2544C76.3483 19.6656 76.7181 19.9989 77.1743 19.9989C77.6302 19.9989 78 19.6656 78 19.2544V15.5301C77.9946 15.4834 77.9927 15.4363 77.9839 15.3903C77.9397 15.1978 77.8154 15.0269 77.6372 14.914Z" fill="black" fill-opacity="0.54"/>
</svg>
