<?xml version="1.0" encoding="UTF-8"?>
<svg width="700pt" height="700pt" version="1.1" viewBox="0 0 700 700" xmlns="http://www.w3.org/2000/svg" xmlns:xlink="http://www.w3.org/1999/xlink">
 <defs>
  <symbol id="t" overflow="visible">
   <path d="m16.281-0.96875c-0.83594 0.42969-1.7109 0.75-2.625 0.96875-0.90625 0.22656-1.8555 0.34375-2.8438 0.34375-2.9492 0-5.2891-0.82031-7.0156-2.4688-1.7305-1.6562-2.5938-3.8945-2.5938-6.7188 0-2.832 0.86328-5.0703 2.5938-6.7188 1.7266-1.6562 4.0664-2.4844 7.0156-2.4844 0.98828 0 1.9375 0.11719 2.8438 0.34375 0.91406 0.21875 1.7891 0.54297 2.625 0.96875v3.6719c-0.84375-0.57031-1.6797-0.99219-2.5-1.2656-0.82422-0.26953-1.6875-0.40625-2.5938-0.40625-1.6367 0-2.9219 0.52734-3.8594 1.5781-0.92969 1.043-1.3906 2.4805-1.3906 4.3125 0 1.8242 0.46094 3.2617 1.3906 4.3125 0.9375 1.043 2.2227 1.5625 3.8594 1.5625 0.90625 0 1.7695-0.13281 2.5938-0.40625 0.82031-0.26953 1.6562-0.69141 2.5-1.2656z"/>
  </symbol>
  <symbol id="c" overflow="visible">
   <path d="m11.922-9.6719c-0.375-0.17578-0.75-0.30469-1.125-0.39062-0.36719-0.082031-0.73047-0.125-1.0938-0.125-1.0938 0-1.9375 0.35547-2.5312 1.0625-0.58594 0.69922-0.875 1.6992-0.875 3v6.125h-4.25v-13.297h4.25v2.1875c0.53906-0.875 1.1641-1.5078 1.875-1.9062 0.70703-0.39453 1.5547-0.59375 2.5469-0.59375 0.14453 0 0.30078 0.007813 0.46875 0.015625 0.16406 0.011719 0.40625 0.039062 0.71875 0.078125z"/>
  </symbol>
  <symbol id="a" overflow="visible">
   <path d="m15.312-6.6875v1.2188h-9.9375c0.10156 0.99219 0.46094 1.7344 1.0781 2.2344 0.625 0.5 1.4883 0.75 2.5938 0.75 0.89453 0 1.8125-0.12891 2.75-0.39062 0.9375-0.26953 1.8984-0.67188 2.8906-1.2031v3.2656c-1.0117 0.38672-2.0234 0.67188-3.0312 0.85938-1 0.19531-2 0.29688-3 0.29688-2.4062 0-4.2773-0.60938-5.6094-1.8281-1.3359-1.2266-2-2.9453-2-5.1562 0-2.1641 0.64844-3.8672 1.9531-5.1094 1.3125-1.2383 3.1172-1.8594 5.4219-1.8594 2.082 0 3.75 0.63281 5 1.8906 1.2578 1.25 1.8906 2.9297 1.8906 5.0312zm-4.3594-1.4062c0-0.8125-0.24219-1.4609-0.71875-1.9531-0.46875-0.5-1.0859-0.75-1.8438-0.75-0.82422 0-1.4961 0.23438-2.0156 0.70312-0.51172 0.46094-0.82812 1.125-0.95312 2z"/>
  </symbol>
  <symbol id="e" overflow="visible">
   <path d="m8-5.9844c-0.88672 0-1.5547 0.15234-2 0.45312-0.44922 0.30469-0.67188 0.74609-0.67188 1.3281 0 0.54297 0.17578 0.96484 0.53125 1.2656 0.36328 0.30469 0.86719 0.45312 1.5156 0.45312 0.80078 0 1.4727-0.28516 2.0156-0.85938 0.53906-0.57031 0.8125-1.2891 0.8125-2.1562v-0.48438zm6.5-1.5938v7.5781h-4.2969v-1.9688c-0.5625 0.80469-1.2031 1.3906-1.9219 1.7656-0.71094 0.36328-1.5742 0.54688-2.5938 0.54688-1.375 0-2.4961-0.39844-3.3594-1.2031-0.85547-0.80078-1.2812-1.8438-1.2812-3.125 0-1.5625 0.53516-2.707 1.6094-3.4375 1.0703-0.72656 2.7539-1.0938 5.0469-1.0938h2.5v-0.32812c0-0.67578-0.26562-1.1719-0.79688-1.4844-0.52344-0.3125-1.3438-0.46875-2.4688-0.46875-0.91797 0-1.7656 0.09375-2.5469 0.28125-0.78125 0.17969-1.5117 0.44922-2.1875 0.8125v-3.2344c0.91406-0.21875 1.832-0.38281 2.75-0.5 0.91406-0.11328 1.832-0.17188 2.75-0.17188 2.3945 0 4.125 0.47656 5.1875 1.4219 1.0703 0.9375 1.6094 2.4766 1.6094 4.6094z"/>
  </symbol>
  <symbol id="b" overflow="visible">
   <path d="m6.6875-17.078v3.7812h4.375v3.0469h-4.375v5.625c0 0.625 0.11719 1.0469 0.35938 1.2656 0.25 0.21094 0.73828 0.3125 1.4688 0.3125h2.1875v3.0469h-3.6562c-1.6797 0-2.8672-0.34766-3.5625-1.0469-0.69922-0.69531-1.0469-1.8906-1.0469-3.5781v-5.625h-2.1094v-3.0469h2.1094v-3.7812z"/>
  </symbol>
  <symbol id="l" overflow="visible">
   <path d="m11.094-11.344v-7.125h4.2656v18.469h-4.2656v-1.9219c-0.59375 0.78125-1.2461 1.3555-1.9531 1.7188-0.69922 0.36328-1.5117 0.54688-2.4375 0.54688-1.6367 0-2.9805-0.64844-4.0312-1.9531-1.0547-1.3008-1.5781-2.9766-1.5781-5.0312 0-2.0391 0.52344-3.7109 1.5781-5.0156 1.0508-1.3008 2.3945-1.9531 4.0312-1.9531 0.91406 0 1.7266 0.18359 2.4375 0.54688 0.70703 0.36719 1.3594 0.9375 1.9531 1.7188zm-2.8125 8.5938c0.91406 0 1.6133-0.32812 2.0938-0.98438 0.47656-0.66406 0.71875-1.6328 0.71875-2.9062 0-1.2578-0.24219-2.2227-0.71875-2.8906-0.48047-0.66406-1.1797-1-2.0938-1-0.89844 0-1.5859 0.33594-2.0625 1-0.48047 0.66797-0.71875 1.6328-0.71875 2.8906 0 1.2734 0.23828 2.2422 0.71875 2.9062 0.47656 0.65625 1.1641 0.98438 2.0625 0.98438z"/>
  </symbol>
  <symbol id="k" overflow="visible">
   <path d="m9.125-2.75c0.90625 0 1.5977-0.32812 2.0781-0.98438 0.47656-0.66406 0.71875-1.6328 0.71875-2.9062 0-1.2578-0.24219-2.2227-0.71875-2.8906-0.48047-0.66406-1.1719-1-2.0781-1-0.91797 0-1.6211 0.33594-2.1094 1-0.48047 0.66797-0.71875 1.6328-0.71875 2.8906 0 1.2617 0.23828 2.2266 0.71875 2.8906 0.48828 0.66797 1.1914 1 2.1094 1zm-2.8281-8.5938c0.58203-0.78125 1.2266-1.3516 1.9375-1.7188 0.71875-0.36328 1.5391-0.54688 2.4688-0.54688 1.6328 0 2.9766 0.65234 4.0312 1.9531 1.0508 1.3047 1.5781 2.9766 1.5781 5.0156 0 2.0547-0.52734 3.7305-1.5781 5.0312-1.0547 1.3047-2.3984 1.9531-4.0312 1.9531-0.92969 0-1.75-0.18359-2.4688-0.54688-0.71094-0.375-1.3555-0.94531-1.9375-1.7188v1.9219h-4.25v-18.469h4.25z"/>
  </symbol>
  <symbol id="j" overflow="visible">
   <path d="m0.29688-13.297h4.25l3.5781 9.0156 3.0312-9.0156h4.25l-5.5938 14.562c-0.5625 1.4766-1.2188 2.5078-1.9688 3.0938-0.74219 0.59375-1.7266 0.89062-2.9531 0.89062h-2.4531v-2.7969h1.3281c0.71875 0 1.2383-0.11719 1.5625-0.34375 0.33203-0.23047 0.59375-0.64062 0.78125-1.2344l0.10938-0.35938z"/>
  </symbol>
  <symbol id="i" overflow="visible">
   <path d="m2.2344-17.719h5.8125l4.0312 9.4844 4.0625-9.4844h5.8125v17.719h-4.3281v-12.969l-4.0781 9.5625h-2.8906l-4.0938-9.5625v12.969h-4.3281z"/>
  </symbol>
  <symbol id="h" overflow="visible">
   <path d="m1.9062-5.1719v-8.125h4.2656v1.3281c0 0.71875-0.007813 1.625-0.015625 2.7188v2.1719c0 1.0742 0.023438 1.8438 0.078125 2.3125 0.050781 0.46875 0.14453 0.8125 0.28125 1.0312 0.17578 0.27344 0.40625 0.48438 0.6875 0.64062 0.28125 0.14844 0.60156 0.21875 0.96875 0.21875 0.88281 0 1.5781-0.33594 2.0781-1.0156 0.50781-0.6875 0.76562-1.6328 0.76562-2.8438v-6.5625h4.25v13.297h-4.25v-1.9219c-0.63672 0.77344-1.3125 1.3438-2.0312 1.7188-0.71875 0.36328-1.5117 0.54688-2.375 0.54688-1.5312 0-2.6992-0.46875-3.5-1.4062-0.80469-0.94531-1.2031-2.3164-1.2031-4.1094z"/>
  </symbol>
  <symbol id="s" overflow="visible">
   <path d="m2.0469-18.469h4.25v18.469h-4.25z"/>
  </symbol>
  <symbol id="g" overflow="visible">
   <path d="m15.406-8.0938v8.0938h-4.2656v-6.1719c0-1.1641-0.027344-1.9609-0.078125-2.3906-0.054688-0.4375-0.14062-0.75781-0.26562-0.96875-0.16797-0.28125-0.39844-0.49219-0.6875-0.64062-0.28125-0.15625-0.60547-0.23438-0.96875-0.23438-0.88672 0-1.5859 0.34375-2.0938 1.0312-0.5 0.67969-0.75 1.6211-0.75 2.8281v6.5469h-4.25v-18.469h4.25v7.125c0.63281-0.78125 1.3125-1.3516 2.0312-1.7188 0.71875-0.36328 1.5156-0.54688 2.3906-0.54688 1.5312 0 2.6914 0.46875 3.4844 1.4062 0.80078 0.9375 1.2031 2.3086 1.2031 4.1094z"/>
  </symbol>
  <symbol id="f" overflow="visible">
   <path d="m14.359-11.094c0.53906-0.82031 1.1797-1.4453 1.9219-1.875 0.73828-0.42578 1.5508-0.64062 2.4375-0.64062 1.5312 0 2.6914 0.46875 3.4844 1.4062 0.80078 0.9375 1.2031 2.3086 1.2031 4.1094v8.0938h-4.2656v-6.9375c0.007813-0.10156 0.015625-0.20703 0.015625-0.3125v-0.48438c0-0.9375-0.14062-1.6133-0.42188-2.0312-0.27344-0.42578-0.71484-0.64062-1.3281-0.64062-0.8125 0-1.4375 0.33594-1.875 1-0.4375 0.65625-0.66797 1.6172-0.6875 2.875v6.5312h-4.2656v-6.9375c0-1.4688-0.13281-2.4102-0.39062-2.8281-0.25-0.42578-0.69922-0.64062-1.3438-0.64062-0.8125 0-1.4453 0.33594-1.8906 1-0.4375 0.66797-0.65625 1.6211-0.65625 2.8594v6.5469h-4.2812v-13.297h4.2812v1.9531c0.51953-0.75781 1.1172-1.3281 1.7969-1.7031 0.67578-0.375 1.4219-0.5625 2.2344-0.5625 0.91406 0 1.7227 0.22656 2.4219 0.67188 0.70703 0.4375 1.2422 1.0547 1.6094 1.8438z"/>
  </symbol>
  <symbol id="r" overflow="visible">
   <path d="m10.797-18.469v2.7812h-2.3594c-0.60547 0-1.0273 0.10938-1.2656 0.32812-0.23047 0.21875-0.34375 0.60156-0.34375 1.1406v0.92188h3.625v3.0469h-3.625v10.25h-4.25v-10.25h-2.1094v-3.0469h2.1094v-0.92188c0-1.4453 0.39844-2.5156 1.2031-3.2031 0.8125-0.69531 2.0625-1.0469 3.75-1.0469z"/>
  </symbol>
  <symbol id="d" overflow="visible">
   <path d="m8.375-10.578c-0.94922 0-1.6719 0.33984-2.1719 1.0156-0.49219 0.67969-0.73438 1.6523-0.73438 2.9219 0 1.2812 0.24219 2.2617 0.73438 2.9375 0.5 0.67969 1.2227 1.0156 2.1719 1.0156 0.92578 0 1.6328-0.33594 2.125-1.0156 0.48828-0.67578 0.73438-1.6562 0.73438-2.9375 0-1.2695-0.24609-2.2422-0.73438-2.9219-0.49219-0.67578-1.1992-1.0156-2.125-1.0156zm0-3.0312c2.2812 0 4.0625 0.62109 5.3438 1.8594 1.2891 1.2305 1.9375 2.9336 1.9375 5.1094 0 2.1875-0.64844 3.9023-1.9375 5.1406-1.2812 1.2305-3.0625 1.8438-5.3438 1.8438-2.3047 0-4.1016-0.61328-5.3906-1.8438-1.293-1.2383-1.9375-2.9531-1.9375-5.1406 0-2.1758 0.64453-3.8789 1.9375-5.1094 1.2891-1.2383 3.0859-1.8594 5.3906-1.8594z"/>
  </symbol>
  <symbol id="q" overflow="visible">
   <path d="m2.2344-17.719h5.1094l6.4375 12.156v-12.156h4.3281v17.719h-5.0938l-6.4531-12.156v12.156h-4.3281z"/>
  </symbol>
  <symbol id="p" overflow="visible">
   <path d="m15.406-8.0938v8.0938h-4.2656v-6.2031c0-1.1445-0.027344-1.9297-0.078125-2.3594-0.054688-0.4375-0.14062-0.75781-0.26562-0.96875-0.16797-0.28125-0.39844-0.49219-0.6875-0.64062-0.28125-0.15625-0.60547-0.23438-0.96875-0.23438-0.88672 0-1.5859 0.34375-2.0938 1.0312-0.5 0.67969-0.75 1.6211-0.75 2.8281v6.5469h-4.25v-13.297h4.25v1.9531c0.63281-0.78125 1.3125-1.3516 2.0312-1.7188 0.71875-0.36328 1.5156-0.54688 2.3906-0.54688 1.5312 0 2.6914 0.46875 3.4844 1.4062 0.80078 0.9375 1.2031 2.3086 1.2031 4.1094z"/>
  </symbol>
  <symbol id="o" overflow="visible">
   <path d="m2.2344-17.719h7.5781c2.2578 0 3.9922 0.5 5.2031 1.5 1.207 1 1.8125 2.4297 1.8125 4.2812 0 1.8555-0.60547 3.2812-1.8125 4.2812-1.2109 1-2.9453 1.5-5.2031 1.5h-3.0156v6.1562h-4.5625zm4.5625 3.3125v4.9375h2.5312c0.88281 0 1.5664-0.21094 2.0469-0.64062 0.48828-0.42578 0.73438-1.0352 0.73438-1.8281 0-0.78906-0.24609-1.3984-0.73438-1.8281-0.48047-0.42578-1.1641-0.64062-2.0469-0.64062z"/>
  </symbol>
  <symbol id="n" overflow="visible">
   <path d="m2.0469-13.297h4.25v13.062c0 1.7812-0.42969 3.1406-1.2812 4.0781-0.85547 0.9375-2.0938 1.4062-3.7188 1.4062h-2.1094v-2.7969h0.73438c0.8125 0 1.3672-0.18359 1.6719-0.54688 0.30078-0.36719 0.45312-1.0781 0.45312-2.1406zm0-5.1719h4.25v3.4688h-4.25z"/>
  </symbol>
  <symbol id="m" overflow="visible">
   <path d="m12.781-12.875v3.4688c-0.57422-0.39453-1.1523-0.6875-1.7344-0.875-0.58594-0.19531-1.1875-0.29688-1.8125-0.29688-1.1875 0-2.1172 0.35156-2.7812 1.0469-0.65625 0.6875-0.98438 1.6523-0.98438 2.8906 0 1.25 0.32812 2.2266 0.98438 2.9219 0.66406 0.6875 1.5938 1.0312 2.7812 1.0312 0.66406 0 1.2969-0.097656 1.8906-0.29688 0.60156-0.19531 1.1562-0.49219 1.6562-0.89062v3.4844c-0.66797 0.24219-1.3438 0.42188-2.0312 0.54688-0.67969 0.125-1.3594 0.1875-2.0469 0.1875-2.3984 0-4.2734-0.61328-5.625-1.8438-1.3555-1.2266-2.0312-2.9414-2.0312-5.1406 0-2.1875 0.67578-3.8945 2.0312-5.125 1.3516-1.2266 3.2266-1.8438 5.625-1.8438 0.69531 0 1.3828 0.0625 2.0625 0.1875 0.67578 0.11719 1.3477 0.29688 2.0156 0.54688z"/>
  </symbol>
 </defs>
 <g>
  <path d="m208.55 213.09-0.050781 0.042969v-0.042969z"/>
  <path d="m486 298.04c-0.046875 0.10156-0.14062 0.19531-0.24219 0.29297-0.19531-0.14062-0.33984-0.24219-0.48438-0.38281 0.24219 0.042969 0.48438 0.089843 0.72656 0.089843z"/>
  <path d="m510.75 218.54c-0.046875 0.046875-0.046875 0.046875-0.097656 0.046875-0.046875-0.14453-0.10156-0.29297-0.19531-0.4375 0.097656 0.097657 0.19531 0.25 0.29297 0.39062z"/>
  <path d="m534.82 233.12c-0.24219 0.097656-0.53125 0.14453-0.77734 0.19531 0.14453-0.63281 0.29688-1.2148 0.39062-1.8477 0.19141 0.53516 0.28906 1.1211 0.38672 1.6523z"/>
  <path d="m536.62 228.8h-0.097656c0-0.19531 0-0.39062 0.046874-0.58203 0.050782 0.19141 0.050782 0.38672 0.050782 0.58203z"/>
  <path d="m492.48 280.24c-0.83203-2.7734-0.49219-5.8359 1.1641-8.4609 1.707-2.625 4.375-4.2305 7.2461-4.6211 0.82812 2.7227 0.53516 5.8359-1.168 8.5078-1.7031 2.6289-4.375 4.2305-7.2422 4.5742z"/>
  <path d="m458.68 300.95c0.33594-2.8672 1.8945-5.5859 4.4727-7.293 2.5781-1.7461 5.6875-2.1328 8.4609-1.3555-0.29688 2.8672-1.8516 5.5859-4.4258 7.3438-2.625 1.6953-5.7422 2.0859-8.5078 1.3047z"/>
  <path d="m577.57 327.36c-0.33594 0.097657-0.63281 0.19531-0.91797 0.29297v-0.14453c0.28516-0.054688 0.57812-0.10547 0.91797-0.14844z"/>
  <path d="m577.61 292.5c0 0.24219-0.046875 0.48438-0.097656 0.72266-0.046875 0-0.10156-0.046875-0.14453-0.046875 0.046875-0.23828 0.14453-0.43359 0.24219-0.67578z"/>
  <path d="m586.32 321.24c-0.29297 0.24219-0.63281 0.48438-0.96875 0.67969-0.054687-0.046875-0.054687-0.046875-0.10156-0.10156 0.34375-0.19531 0.73047-0.33594 1.0703-0.57812z"/>
  <path d="m548.63 219.07c-0.046874 2.8672-1.3555 5.7383-3.7891 7.6836-2.3828 1.9453-5.4453 2.5781-8.2188 2.043 0-0.19531 0-0.39062-0.046875-0.58203v-0.046875c0.19531-2.6758 1.5078-5.25 3.793-7.0508 2.4258-1.9492 5.4414-2.5859 8.2617-2.0469z"/>
  <path d="m536.62 228.8h-0.097656c0-0.19531 0-0.39062 0.046874-0.58203 0.050782 0.19141 0.050782 0.38672 0.050782 0.58203z"/>
  <path d="m486 298.04c-0.046875 0.10156-0.14062 0.19531-0.24219 0.29297-0.19531-0.14062-0.33984-0.24219-0.48438-0.38281 0.24219 0.042969 0.48438 0.089843 0.72656 0.089843z"/>
  <path d="m512.02 193.69c-1.2656 2.8203-3.6953 4.7656-6.5156 5.543-1.2148-2.625-1.3164-5.7383 0-8.5586 1.3125-2.8203 3.7422-4.7656 6.5156-5.543 1.2148 2.582 1.3164 5.7383 0 8.5586z"/>
  <path d="m510.66 218.59c-2.1875 1.8945-5.1055 2.8203-8.1211 2.3828-3.1133-0.4375-5.6406-2.2383-7.1484-4.7148 2.1328-1.8945 5.1055-2.8672 8.168-2.3828 2.918 0.39062 5.3008 1.9922 6.9062 4.2305v0.046875c0.097656 0.14453 0.14844 0.28516 0.19531 0.4375z"/>
  <path d="m510.75 218.54c-0.046875 0.046875-0.046875 0.046875-0.097656 0.046875-0.046875-0.14453-0.10156-0.29297-0.19531-0.4375 0.097656 0.097657 0.19531 0.25 0.29297 0.39062z"/>
  <path d="m495.34 223.5c-1.457 2.4805-3.9883 4.3281-7.0508 4.8125-3.1133 0.53516-6.0781-0.39062-8.2656-2.2852 1.457-2.4805 3.9883-4.2773 7.0508-4.8125 3.1094-0.48438 6.0742 0.4375 8.2656 2.2852z"/>
  <path d="m534.43 231.42v0.046875c-0.097656 0.63281-0.24219 1.2148-0.39062 1.8477-2.5703 0.63281-5.3008 0.24219-7.7305-1.3125-2.625-1.7031-4.2305-4.375-4.5664-7.1953 2.7227-0.875 5.832-0.53516 8.457 1.1172 2.0938 1.3672 3.5508 3.3555 4.2305 5.4961z"/>
  <path d="m534.82 233.12c-0.24219 0.097656-0.53125 0.14453-0.77734 0.19531 0.14453-0.63281 0.29688-1.2148 0.39062-1.8477 0.19141 0.53516 0.28906 1.1211 0.38672 1.6523z"/>
  <path d="m591.47 286.62c-0.77734 2.7656-2.7266 5.25-5.5469 6.5625-2.7656 1.3164-5.8828 1.2148-8.4062 0.046874-0.046875 0-0.10156-0.046874-0.14453-0.046874 0.046875-0.24219 0.14453-0.4375 0.24219-0.67969v-0.10156c0.92578-2.4297 2.7734-4.5664 5.3047-5.7812 2.8125-1.3203 5.9258-1.2188 8.5508 0z"/>
  <path d="m567.98 295.07c-2.8203-1.3125-5.9453-1.2188-8.5586-0.007812 0.74219 2.7812 2.6836 5.2305 5.5234 6.5352 2.8242 1.3164 5.957 1.2266 8.5742 0.007812-0.77344-2.7812-2.7109-5.2109-5.5391-6.5352z"/>
  <path d="m577.57 327.36c-0.33594 0.097657-0.63281 0.19531-0.91797 0.29297v-0.14453c0.28516-0.054688 0.57812-0.10547 0.91797-0.14844z"/>
  <path d="m578.29 331.84-0.24219 0.24219c-0.054687-0.046875-0.10156-0.14453-0.14453-0.24219z"/>
  <path d="m578.68 332.61v0.4375c-0.054688-0.10156-0.10156-0.14453-0.14453-0.24219z"/>
  <path d="m586.32 321.24c-0.29297 0.24219-0.63281 0.48438-0.96875 0.67969-0.054687-0.046875-0.054687-0.046875-0.10156-0.10156 0.34375-0.19531 0.73047-0.33594 1.0703-0.57812z"/>
  <path d="m597.45 405.3h-16.242v-33.453l0.24219 0.24609c0.14453 0.14062 0.39062 0.14062 0.58203-0.054687 0.14453-0.14062 0.14453-0.4375 0-0.58203l-0.48438-0.4375h15.121c0.63281 0 1.1641-0.53125 1.1641-1.2148 0-0.67969-0.53125-1.1641-1.1641-1.1641h-15.031l0.33984-0.33984c0.14453-0.19531 0.14453-0.4375-0.046875-0.63281-0.14453-0.14453-0.4375-0.10156-0.58203 0.046875l-0.14453 0.14453v-32.434c2.3828 1.5508 5.25 2.043 7.8281 1.4102-0.10156-1.75-0.6875-3.5078-1.6523-5.0078h9.2891c0.63281 0 1.1641-0.53516 1.1641-1.2148 0-0.63281-0.53125-1.168-1.1641-1.168h-11.477c-0.046874-0.046875-0.14453-0.097657-0.19531-0.14453-1.168-0.875-2.4297-1.457-3.793-1.7461v-1.6523c0.24219-0.10156 0.49219-0.19531 0.73047-0.29688 1.3125-0.63281 2.6758-1.2656 3.9375-2.0898 1.3164-0.77734 2.4805-1.707 3.5508-2.7734 1.0195-1.1133 1.8477-2.1875 2.7227-3.2578 1.75-2.043 3.3555-4.0352 4.7656-5.6875 1.4102-1.6523 2.4805-3.1133 3.2578-4.0859 0.72266-1.0195 1.2148-1.6055 1.2148-1.6055l-0.14453-0.046875s-0.48438 0.48438-1.3125 1.457c-0.82813 0.91797-1.9922 2.3281-3.5508 3.8906-1.457 1.5547-3.2109 3.3555-5.1055 5.3477-0.92578 0.92578-1.8477 2.0469-2.8672 2.9648-0.63281 0.53516-1.3164 1.0195-1.9922 1.457 1.9414-1.5078 3.3047-3.7422 3.6953-6.3711 0.4375-3.0625-0.48438-6.0312-2.3828-8.2188-2.4297 1.457-4.2773 4.0352-4.7617 7.0977-0.49219 3.0625 0.4375 5.9805 2.2852 8.1211 0.33984-0.19531 0.73047-0.33594 1.0703-0.57812-0.29297 0.24219-0.63281 0.48438-0.96875 0.67969-0.054687-0.046875-0.054687-0.046875-0.10156-0.10156-0.097656 0.054687-0.14453 0.10156-0.24219 0.14453-1.2148 0.63281-2.5352 1.1172-3.793 1.5547v-17.898c0-0.67969-0.53125-1.2656-1.2656-1.2656s-1.2656 0.58203-1.2656 1.2656v18.676c-0.49219 0.19531-0.97266 0.29297-1.457 0.4375-2.5781 0.63281-5.0586 1.1133-7.1523 1.457-0.91797 0.14453-1.7461 0.29297-2.4805 0.39062 1.0703-1.6523 2.043-3.3047 2.9648-5.0078 1.5078-2.7656 2.7227-5.7383 3.4531-8.8438 0.63281-3.0664 1.0703-5.8359 1.6055-8.7031 0.67969-3.793 1.3555-7.4414 1.8945-10.801-0.046875 0-0.10156-0.046875-0.14453-0.046875 0.046874-0.24219 0.14453-0.4375 0.24219-0.67969v-0.10156c0.24609-1.2656 0.44141-2.5273 0.58203-3.6953 1.4102-8.9961 2.043-15.023 2.043-15.023l-0.29297-0.046875s-1.0195 5.9805-3.0625 14.832c-0.97266 4.4258-2.1875 9.5781-3.5977 15.074-0.67969 2.7266-1.4102 5.7383-2.1875 8.4141-0.875 2.6758-2.2383 5.25-3.8398 7.6836-2.3789 3.5-5.0586 6.8008-7.8789 9.8203h-17.16c1.1133-13.27 1.5508-27.473-0.19531-41.719-0.97266-7.7812-2.625-15.559-5.5938-22.949-0.39062-0.875-0.72266-1.8477-1.168-2.7227l-1.1641-2.5273c-0.77734-1.7031-1.5117-3.3555-2.2891-5.0078l-1.3125-2.7734c0.48437-1.0703 1.4102-3.2578 2.4805-6.1758 0.73047-2.0898 1.5547-4.5234 2.1875-7.1953 0.33984-1.3633 0.67969-2.7227 0.91797-4.1836 0.24609-1.457 0.44141-2.918 0.49219-4.4258 0-0.33984 0.046876-0.63281 0.046876-0.97266h-0.097657c0-0.19531 0-0.39062 0.046875-0.58203v-0.046876c0-0.97266-0.14453-1.9453-0.39062-2.918-0.33984-1.457-0.77734-2.7227-1.1172-4.0352-0.77344-2.625-1.457-5.0586-2.0898-7.0977-0.58203-2.1406-1.168-3.8398-1.6055-5.0586-0.39062-1.168-0.63281-1.8477-0.63281-1.8477l-0.097657 0.046875s0.14063 0.67969 0.48438 1.8945c0.34375 1.2148 0.82812 2.9648 1.2148 5.0586 0.48438 2.1406 1.0195 4.6211 1.6055 7.2461 0.24219 1.3125 0.63281 2.7227 0.82812 4.0859 0.19531 1.3125 0.14453 2.6758-0.046875 4.0859-0.046875 0.58203-0.14453 1.2148-0.29688 1.8008v0.046875c0.19531 0.53516 0.29688 1.1172 0.39062 1.6523-0.24219 0.097656-0.53125 0.14453-0.77734 0.19531-0.046875 0.14453-0.046875 0.24219-0.097656 0.39063-0.33984 1.3633-0.82812 2.6758-1.2656 3.8906-0.82812 2.5273-1.8477 4.8125-2.7734 6.7578-0.48438 1.168-1.0195 2.1406-1.4102 3.0156-0.4375-0.92578-0.82812-1.75-1.2148-2.625-2.9648-6.4688-5.8828-12.641-8.6055-18.527-2.875-5.8828-5.5938-11.379-8.0703-16.484-1.8477-3.7422-3.5078-7.2461-5.1055-10.504-0.63672-1.168-1.2148-2.2852-1.8008-3.4023-2.0977-4.0859-3.9883-7.6836-5.4961-10.602-1.5117-2.9648-2.7734-5.25-3.5977-6.8086-0.82812-1.5078-1.3164-2.3359-1.3164-2.3359l-0.58203 0.29297s0.33984 0.875 1.0742 2.4805c0.77734 1.6055 1.8477 3.9883 3.1562 7.0039 1.3164 3.0156 2.9219 6.6602 4.7656 10.941 1.8477 4.1836 3.6953 8.9961 5.8828 14.246 0.91797 2.2852 1.8945 4.6211 2.8672 7.0508v0.046876c0.097657 0.097656 0.19531 0.24219 0.29297 0.39062-0.046875 0.046876-0.046875 0.046876-0.097656 0.046876 1.2148 3.0156 2.5273 6.125 3.8398 9.3828 0.39062 1.0195 0.77734 2.043 1.2148 3.1133-0.58203-0.097656-1.168-0.24219-1.8008-0.4375-1.9922-0.58203-4.375-1.3125-6.8555-2.2383-1.2656-0.48438-2.5273-1.0195-3.8398-1.6055-1.2148-0.58203-2.4805-1.2656-3.6484-2.043-1.168-0.73047-2.2383-1.6055-3.1133-2.5781-0.92578-1.0195-1.75-2.2383-2.5781-3.2578-1.6523-2.1875-3.1562-4.1836-4.5234-5.8828-1.3164-1.75-2.3359-3.2109-3.0625-4.2773-0.73047-1.0195-1.1172-1.6055-1.1172-1.6055l-0.14453 0.097656s0.39062 0.58203 1.0273 1.7031c0.67969 1.0703 1.6016 2.6758 2.8164 4.4258 1.2148 1.8008 2.5781 3.9375 4.0898 6.1758 0.77344 1.168 1.457 2.3359 2.3789 3.5508 0.92578 1.168 1.9922 2.2852 3.1602 3.1602 1.2148 0.92578 2.4805 1.75 3.6953 2.4805 1.3164 0.77734 2.5781 1.4102 3.793 2.043 2.4805 1.2148 4.8633 2.1875 6.9531 2.9648 1.707 0.63281 3.1602 1.0703 4.332 1.5078 1.457 3.8398 2.9609 7.7812 4.4727 11.816 1.3125 3.3047 2.5703 6.6602 3.8398 10.066 0.63281 1.7031 1.3125 3.4023 1.9414 5.1523l1.0195 2.5781c0.29688 0.77734 0.53516 1.6523 0.77734 2.4805 2.043 6.6602 2.9219 13.859 3.1602 21.152 0.24219 7.4883-0.19531 15.074-1.0195 22.465-1.2695-0.58203-2.625-1.2148-4.0352-1.9453-7.9258-3.9805-18.625-9.6211-27.234-17.652-2.0898-2.043-3.9805-4.2773-5.4453-6.6094-1.3555-2.4805-2.6758-5.2031-3.9805-7.7305-2.625-5.0586-5.0078-9.7734-6.957-13.859-3.9375-8.168-6.2695-13.762-6.2695-13.762l-0.29688 0.046875s1.9453 5.7852 5.3984 14.199c1.6055 4.2305 3.6484 9.1914 5.9336 14.395 1.168 2.625 2.2383 5.25 3.5508 8.1172 1.3555 2.8203 3.2578 5.4453 5.3008 7.8281 1.3125 1.5117 2.625 2.8672 4.0352 4.1836-0.73047 0.046875-1.6055 0.14062-2.4844 0.19531-2.1328 0.14063-4.6133 0.24219-7.293 0.19531-1.3555-0.054687-2.7227-0.10156-4.0859-0.29688-0.53125-0.046875-1.0195-0.14062-1.5508-0.24219 1.8477-1.9922 3.0117-4.7148 2.8164-7.6836-0.19531-3.1133-1.793-5.8359-4.0859-7.5352-2.0898 1.9922-3.3047 4.8633-3.1133 7.9727 0.19531 2.8672 1.5078 5.3984 3.5977 7.1523 0.24219 0.046876 0.48438 0.097657 0.72266 0.097657-0.046875 0.10156-0.14062 0.19531-0.24219 0.29297-0.19531-0.14063-0.33984-0.24219-0.48438-0.38281-0.63281-0.10156-1.2148-0.19531-1.8008-0.33984-1.3633-0.29688-2.625-0.77734-3.793-1.4102-1.2148-0.67969-2.3828-1.5117-3.5-2.2383-2.2852-1.5117-4.4258-2.8672-6.2227-4.0859-1.8008-1.168-3.2578-2.2383-4.2773-2.9648-1.0703-0.73047-1.6523-1.168-1.6523-1.168l-0.046875 0.10156s0.53125 0.48438 1.5078 1.2656c0.97266 0.82812 2.3828 2.043 4.0859 3.3047 1.75 1.3164 3.793 2.875 5.9336 4.4727 1.0742 0.83203 2.1406 1.707 3.4023 2.5352 1.2148 0.82812 2.6758 1.457 4.0859 1.9453 1.4102 0.48438 2.8203 0.875 4.2852 1.1133 1.4062 0.29297 2.8164 0.48438 4.2266 0.67969 2.7266 0.29688 5.3555 0.44141 7.543 0.49219 2.7656 0.046875 4.9609 0 6.2188-0.046875 1.9023 1.6523 3.8398 3.1562 5.7852 4.6133 0.29297 0.19531 0.53516 0.39062 0.82812 0.58203-2.4297 0.58203-4.668 2.0977-6.125 4.375-1.707 2.625-1.9922 5.7383-1.168 8.5078 2.8672-0.39062 5.543-1.9922 7.2461-4.6211 1.0703-1.7031 1.6055-3.5977 1.6055-5.4453 0-0.63281-0.054687-1.2148-0.19531-1.8008 0.097656 0.054688 0.14062 0.10156 0.19531 0.10156v21.195l-0.44141-0.39063c-0.19141-0.19141-0.48438-0.14062-0.63281 0-0.19531 0.19531-0.14062 0.44141 0.054687 0.58203l0.14062 0.14453-61.395 0.003906 0.39062-0.39062c0.14453-0.14453 0.14453-0.4375-0.046875-0.58203-0.19531-0.14062-0.4375-0.14062-0.58203 0l-0.19531 0.19531v-23.047c0-0.67969-0.53516-1.2656-1.2656-1.2656-0.73047 0-1.2656 0.58203-1.2656 1.2656v23.484l-0.44141-0.39063c-0.19531-0.19141-0.48438-0.14062-0.63281 0-0.14062 0.19531-0.14062 0.44141 0.054688 0.58203l0.14062 0.14453-26.789 0.003906v-46.633l35.641-0.046875-126.38-132.8-55.82 58.836v-28.25l-13.129-5.543-13.129 5.543v55.969l-44.102 46.438h35.641v46.484h-49.016l0.33984-0.39062c0.14453-0.14453 0.14453-0.4375-0.046875-0.58203-0.14453-0.14062-0.4375-0.14062-0.58203 0l-0.24219 0.24219v-23.098c0-0.67969-0.53516-1.2656-1.2656-1.2656s-1.2656 0.58203-1.2656 1.2656v23.438l-0.39062-0.33984c-0.14453-0.19141-0.4375-0.14062-0.63281 0-0.14453 0.19531-0.097656 0.44141 0.046876 0.58203l0.14453 0.14453-61.359 0.003906 0.33984-0.39062c0.14453-0.14453 0.14453-0.4375-0.046876-0.58203-0.14453-0.14062-0.39062-0.14062-0.53516 0l-0.29297 0.29688v-23.148c0-0.67969-0.53516-1.2656-1.2656-1.2656-0.73047 0-1.2656 0.58203-1.2656 1.2656v23.438l-0.39063-0.33984c-0.14453-0.19141-0.4375-0.14062-0.58203 0-0.19531 0.19531-0.14453 0.44141 0.046875 0.58203l0.14453 0.14453h-21.348c-0.63281 0-1.168 0.53516-1.168 1.168 0 0.67969 0.53516 1.2148 1.168 1.2148h21.832l-0.63281 0.67969c-0.19531 0.14453-0.19531 0.4375 0 0.58203 0.14453 0.19531 0.4375 0.14453 0.63281 0l0.29297-0.33984v35.551l-0.39062-0.39062c-0.14453-0.14453-0.4375-0.14453-0.58203 0-0.19531 0.19531-0.14453 0.4375 0.046875 0.63281l0.097656 0.10156h-21.297c-0.63281 0-1.168 0.48438-1.168 1.1641 0 0.6875 0.53516 1.2148 1.168 1.2148h21.832l-0.63281 0.6875c-0.19531 0.19531-0.19531 0.4375 0 0.58203 0.14453 0.19141 0.4375 0.19141 0.63281 0l0.29297-0.33984v33.352l-23.285 0.003906c-1.9453 0-3.5508 1.6055-3.5508 3.5508 0 1.9922 1.6055 3.5508 3.5508 3.5508h498.84c1.9453 0 3.5508-1.5547 3.5508-3.5508 0-1.9609-1.6055-3.5664-3.5508-3.5664zm-410.3 0h-62.727v-33.547l0.33984 0.33984c0.14453 0.14062 0.39062 0.14062 0.58203-0.054687 0.14453-0.14062 0.14453-0.4375 0-0.58203l-0.48437-0.4375h61.949l-0.63281 0.6875c-0.14453 0.19531-0.14453 0.4375 0 0.58203 0.19531 0.19141 0.48438 0.19141 0.63281 0l0.33984-0.33984zm0-37-0.39062-0.39063c-0.14453-0.14453-0.4375-0.14453-0.63281 0-0.14453 0.19531-0.097656 0.4375 0.046876 0.63281l0.097656 0.10156-61.312 0.003906 0.33984-0.33984c0.14453-0.19531 0.14453-0.4375-0.046876-0.63281-0.14453-0.14453-0.39062-0.10156-0.53516 0.046874l-0.29297 0.29297v-35.449l0.33984 0.33984c0.14453 0.14453 0.39062 0.14453 0.58203-0.046875 0.14453-0.19531 0.14453-0.4375 0-0.58203l-0.48437-0.4375h61.949l-0.63281 0.67969c-0.14453 0.14453-0.14453 0.4375 0 0.58203 0.19531 0.19531 0.48438 0.14453 0.63281 0l0.33984-0.33984zm52.074 37h-49.547v-33.504l0.29297 0.29688c0.19531 0.14062 0.4375 0.14062 0.58203-0.054687 0.19531-0.14062 0.19531-0.4375 0-0.58203l-0.4375-0.4375h49.109zm0-36.66h-49.012l0.33984-0.33984c0.14453-0.19531 0.14453-0.4375-0.046875-0.63281-0.14453-0.14453-0.4375-0.10156-0.58203 0.046875l-0.24219 0.24219v-35.352l0.29297 0.29297c0.19531 0.14453 0.4375 0.14453 0.58203-0.046875 0.19531-0.19531 0.19531-0.4375 0-0.58203l-0.4375-0.4375h49.109zm122.59 36.66h-64.234v-51.977c0-17.699 14.395-32.094 32.141-32.094 8.8516 0 16.871 3.5938 22.707 9.4297 5.7852 5.7852 9.3828 13.809 9.3828 22.66zm58.691-73.469h27.277l-0.63281 0.67969c-0.14453 0.14453-0.14453 0.4375 0 0.58203 0.19141 0.19531 0.48438 0.14453 0.63281 0l0.39062-0.4375v35.641l-0.44141-0.39062c-0.19531-0.14453-0.48438-0.14453-0.63281 0-0.14062 0.19531-0.14062 0.4375 0.054688 0.63281l0.09375 0.10156h-26.742zm0 39.188h27.277l-0.63281 0.6875c-0.14453 0.19531-0.14453 0.4375 0 0.58203 0.19141 0.19141 0.48438 0.19141 0.63281 0l0.39062-0.44141v33.453h-27.668zm92.922 18.234c-0.63281 1.8008-1.168 3.4531-1.6562 4.9648-1.1641 3.3516-2.8672 7.7812-4.1328 11.082h-56.938v-33.453l0.24219 0.24609c0.19531 0.14062 0.4375 0.14062 0.58203-0.054687 0.19531-0.14062 0.19531-0.4375 0-0.58203l-0.48438-0.4375h61.996l-0.63281 0.6875c-0.14453 0.19531-0.19531 0.4375 0 0.58203 0.19531 0.19141 0.4375 0.19141 0.63281 0l0.39063-0.44141zm0-20.91-0.44141-0.4375c-0.19141-0.14453-0.48438-0.14453-0.63281 0-0.19531 0.19531-0.14062 0.4375 0.054687 0.63281l0.097656 0.10156h-61.32l0.33984-0.33984c0.14453-0.19531 0.14453-0.4375-0.046875-0.63281-0.19531-0.14453-0.4375-0.10156-0.58203 0.046875l-0.19531 0.19531v-35.254l0.24219 0.24219c0.19531 0.14453 0.4375 0.14453 0.58203-0.046875 0.19531-0.19531 0.19531-0.4375 0-0.58203l-0.48438-0.4375h61.996l-0.63281 0.67969c-0.14453 0.14453-0.19531 0.4375 0 0.58203 0.19531 0.19531 0.4375 0.14453 0.63281 0l0.39063-0.4375zm57.328-38.941c1.7461-0.49219 3.7891-1.0195 5.8828-1.75v-0.14453c0.29297-0.046875 0.58203-0.097657 0.91797-0.14062-0.33594 0.097656-0.63281 0.19531-0.91797 0.29297 0.046875 0.58203 0.14062 1.2148 0.29297 1.8008h-6.3711c0.050781-0.015625 0.14844-0.058594 0.19531-0.058594zm-28.836 3.8828c0.054687-0.48437 0.10156-0.97266 0.10156-1.457h15.074c-4.2773 4.3711-8.6562 8.1211-12.352 11.184-1.5508 1.2148-2.9609 2.3359-4.2773 3.3555 0.57812-4.2266 1.0664-8.6055 1.4531-13.082zm-25.965 48v-9.4336l0.24219 0.24609c0.14453 0.14063 0.39062 0.14063 0.58203-0.054687 0.14453-0.14062 0.14453-0.4375 0-0.58203l-0.48438-0.4375h2.7227c-1.0703 3.6953-2.0898 7.0938-3.0625 10.262zm3.793-12.789c0 0.046875-0.046875 0.097656-0.046875 0.14453h-3.2578l0.33594-0.33984c0.10156-0.19531 0.10156-0.4375-0.046875-0.63281-0.19531-0.14453-0.4375-0.10156-0.58203 0.046875l-0.19531 0.19531v-35.254l0.24219 0.24219c0.14453 0.14453 0.39062 0.14453 0.58203-0.046875 0.14453-0.19531 0.14453-0.4375 0-0.58203l-0.48438-0.4375h12.109c-2.4336 13.52-5.6406 26.012-8.6562 36.664zm-3.3555-39.051 0.39062-0.39062c0.10156-0.14453 0.10156-0.4375-0.046875-0.58203-0.19531-0.14062-0.4375-0.14062-0.58203 0l-0.19531 0.19531v-18.957c2.8672 1.9883 5.6406 3.7891 8.168 5.3477 2.3828 1.4102 4.5703 2.6758 6.418 3.6953-0.53516 3.6484-1.1133 7.1953-1.7031 10.699l-12.449-0.003906zm62.289 75.855h-49.645c0.4375-1.5508 0.91797-3.4531 1.457-5.6875 1.5547-6.5625 3.7422-15.898 5.8359-27.273 0.097657-0.4375 0.14062-0.87891 0.24219-1.3164h41.719l-0.63281 0.6875c-0.19531 0.19531-0.19531 0.4375 0 0.58203 0.14062 0.19141 0.4375 0.19141 0.58203 0l0.4375-0.49219zm0-36.957-0.49219-0.4375c-0.14062-0.14453-0.4375-0.14453-0.63281 0-0.14453 0.19531-0.097656 0.4375 0.046875 0.63281l0.10156 0.10156h-40.699c0.63281-3.5508 1.2656-7.1953 1.8945-11.086 0.49219-0.4375 1.2695-1.0703 2.1406-1.8477 2.043-1.8008 4.9102-4.375 8.2188-7.6328 3.3047-3.2578 7.0469-7.1484 10.84-11.574 1.2656-1.457 2.5352-3.0156 3.6953-4.668h14.492l-0.24219 0.24219-0.39062 0.4375c-0.19531 0.14453-0.19531 0.4375 0 0.58203 0.14062 0.19531 0.4375 0.14453 0.58203 0l0.29297-0.29297 0.14453-0.19531 0.003907 35.738zm0-41.086c-0.33984 0-0.63281 0.054687-0.92578 0.054687 0.046876-0.054687 0.14453-0.10156 0.19531-0.10156 0.24219-0.097656 0.49219-0.19531 0.73047-0.29297z"/>
  <use x="48.523438" y="632.9375" xlink:href="#t"/>
  <use x="66.367188" y="632.9375" xlink:href="#c"/>
  <use x="78.359375" y="632.9375" xlink:href="#a"/>
  <use x="94.847656" y="632.9375" xlink:href="#e"/>
  <use x="111.253906" y="632.9375" xlink:href="#b"/>
  <use x="122.875" y="632.9375" xlink:href="#a"/>
  <use x="139.363281" y="632.9375" xlink:href="#l"/>
  <use x="165.230469" y="632.9375" xlink:href="#k"/>
  <use x="182.636719" y="632.9375" xlink:href="#j"/>
  <use x="206.949219" y="632.9375" xlink:href="#i"/>
  <use x="231.140625" y="632.9375" xlink:href="#h"/>
  <use x="248.449219" y="632.9375" xlink:href="#s"/>
  <use x="256.785156" y="632.9375" xlink:href="#g"/>
  <use x="274.09375" y="632.9375" xlink:href="#e"/>
  <use x="290.5" y="632.9375" xlink:href="#f"/>
  <use x="48.523438" y="657.25" xlink:href="#r"/>
  <use x="59.101562" y="657.25" xlink:href="#c"/>
  <use x="71.09375" y="657.25" xlink:href="#d"/>
  <use x="87.796875" y="657.25" xlink:href="#f"/>
  <use x="121.59375" y="657.25" xlink:href="#b"/>
  <use x="133.214844" y="657.25" xlink:href="#g"/>
  <use x="150.523438" y="657.25" xlink:href="#a"/>
  <use x="175.476563" y="657.25" xlink:href="#q"/>
  <use x="195.824219" y="657.25" xlink:href="#d"/>
  <use x="212.527344" y="657.25" xlink:href="#h"/>
  <use x="229.835938" y="657.25" xlink:href="#p"/>
  <use x="255.609375" y="657.25" xlink:href="#o"/>
  <use x="273.425781" y="657.25" xlink:href="#c"/>
  <use x="285.417969" y="657.25" xlink:href="#d"/>
  <use x="302.121094" y="657.25" xlink:href="#n"/>
  <use x="310.453125" y="657.25" xlink:href="#a"/>
  <use x="326.945312" y="657.25" xlink:href="#m"/>
  <use x="341.355469" y="657.25" xlink:href="#b"/>
 </g>
</svg>
