<?xml version="1.0" encoding="UTF-8"?>
<svg width="700pt" height="700pt" version="1.1" viewBox="0 0 700 700" xmlns="http://www.w3.org/2000/svg" xmlns:xlink="http://www.w3.org/1999/xlink">
 <defs>
  <symbol id="t" overflow="visible">
   <path d="m18.766-1.125c-0.96875 0.5-1.9805 0.875-3.0312 1.125-1.043 0.25781-2.1367 0.39062-3.2812 0.39062-3.3984 0-6.0898-0.94531-8.0781-2.8438-1.9922-1.9062-2.9844-4.4844-2.9844-7.7344 0-3.2578 0.99219-5.8359 2.9844-7.7344 1.9883-1.9062 4.6797-2.8594 8.0781-2.8594 1.1445 0 2.2383 0.13281 3.2812 0.39062 1.0508 0.25 2.0625 0.625 3.0312 1.125v4.2188c-0.98047-0.65625-1.9453-1.1406-2.8906-1.4531-0.94922-0.3125-1.9492-0.46875-3-0.46875-1.875 0-3.3516 0.60547-4.4219 1.8125-1.0742 1.1992-1.6094 2.8555-1.6094 4.9688 0 2.1055 0.53516 3.7617 1.6094 4.9688 1.0703 1.1992 2.5469 1.7969 4.4219 1.7969 1.0508 0 2.0508-0.14844 3-0.45312 0.94531-0.3125 1.9102-0.80078 2.8906-1.4688z"/>
  </symbol>
  <symbol id="d" overflow="visible">
   <path d="m13.734-11.141c-0.4375-0.19531-0.87109-0.34375-1.2969-0.4375-0.41797-0.10156-0.83984-0.15625-1.2656-0.15625-1.2617 0-2.2305 0.40625-2.9062 1.2188-0.67969 0.80469-1.0156 1.9531-1.0156 3.4531v7.0625h-4.8906v-15.312h4.8906v2.5156c0.625-1 1.3438-1.7266 2.1562-2.1875 0.82031-0.46875 1.8008-0.70312 2.9375-0.70312 0.16406 0 0.34375 0.011719 0.53125 0.03125 0.19531 0.011719 0.47656 0.039062 0.84375 0.078125z"/>
  </symbol>
  <symbol id="a" overflow="visible">
   <path d="m17.641-7.7031v1.4062h-11.453c0.125 1.1484 0.53906 2.0078 1.25 2.5781 0.70703 0.57422 1.7031 0.85938 2.9844 0.85938 1.0312 0 2.082-0.14844 3.1562-0.45312 1.082-0.3125 2.1914-0.77344 3.3281-1.3906v3.7656c-1.1562 0.4375-2.3125 0.76562-3.4688 0.98438-1.1562 0.22656-2.3125 0.34375-3.4688 0.34375-2.7734 0-4.9297-0.70312-6.4688-2.1094-1.5312-1.4062-2.2969-3.3789-2.2969-5.9219 0-2.5 0.75391-4.4609 2.2656-5.8906 1.5078-1.4375 3.582-2.1562 6.2188-2.1562 2.4062 0 4.332 0.73047 5.7812 2.1875 1.4453 1.4492 2.1719 3.3828 2.1719 5.7969zm-5.0312-1.625c0-0.92578-0.27344-1.6719-0.8125-2.2344-0.54297-0.57031-1.25-0.85938-2.125-0.85938-0.94922 0-1.7188 0.26562-2.3125 0.79688s-0.96484 1.2969-1.1094 2.2969z"/>
  </symbol>
  <symbol id="k" overflow="visible">
   <path d="m9.2188-6.8906c-1.0234 0-1.793 0.17188-2.3125 0.51562-0.51172 0.34375-0.76562 0.85547-0.76562 1.5312 0 0.625 0.20703 1.1172 0.625 1.4688 0.41406 0.34375 0.98828 0.51562 1.7188 0.51562 0.92578 0 1.7031-0.32812 2.3281-0.98438 0.63281-0.66406 0.95312-1.4922 0.95312-2.4844v-0.5625zm7.4688-1.8438v8.7344h-4.9219v-2.2656c-0.65625 0.92969-1.3984 1.6055-2.2188 2.0312-0.82422 0.41406-1.8242 0.625-3 0.625-1.5859 0-2.8711-0.45703-3.8594-1.375-0.99219-0.92578-1.4844-2.1289-1.4844-3.6094 0-1.7891 0.61328-3.1016 1.8438-3.9375 1.2383-0.84375 3.1797-1.2656 5.8281-1.2656h2.8906v-0.39062c0-0.76953-0.30859-1.332-0.92188-1.6875-0.61719-0.36328-1.5703-0.54688-2.8594-0.54688-1.0547 0-2.0312 0.10547-2.9375 0.3125-0.89844 0.21094-1.7305 0.52344-2.5 0.9375v-3.7344c1.0391-0.25 2.0859-0.44141 3.1406-0.57812 1.0625-0.13281 2.125-0.20312 3.1875-0.20312 2.7578 0 4.75 0.54688 5.9688 1.6406 1.2266 1.0859 1.8438 2.8555 1.8438 5.3125z"/>
  </symbol>
  <symbol id="c" overflow="visible">
   <path d="m7.7031-19.656v4.3438h5.0469v3.5h-5.0469v6.5c0 0.71094 0.14062 1.1875 0.42188 1.4375s0.83594 0.375 1.6719 0.375h2.5156v3.5h-4.1875c-1.9375 0-3.3125-0.39844-4.125-1.2031-0.80469-0.8125-1.2031-2.1797-1.2031-4.1094v-6.5h-2.4219v-3.5h2.4219v-4.3438z"/>
  </symbol>
  <symbol id="j" overflow="visible">
   <path d="m12.766-13.078v-8.2031h4.9219v21.281h-4.9219v-2.2188c-0.66797 0.90625-1.4062 1.5703-2.2188 1.9844s-1.7578 0.625-2.8281 0.625c-1.8867 0-3.4336-0.75-4.6406-2.25-1.2109-1.5-1.8125-3.4258-1.8125-5.7812 0-2.3633 0.60156-4.2969 1.8125-5.7969 1.207-1.5 2.7539-2.25 4.6406-2.25 1.0625 0 2 0.21484 2.8125 0.64062 0.82031 0.42969 1.5664 1.0859 2.2344 1.9688zm-3.2188 9.9219c1.0391 0 1.8359-0.37891 2.3906-1.1406 0.55078-0.76953 0.82812-1.8828 0.82812-3.3438 0-1.457-0.27734-2.5664-0.82812-3.3281-0.55469-0.76953-1.3516-1.1562-2.3906-1.1562-1.043 0-1.8398 0.38672-2.3906 1.1562-0.55469 0.76172-0.82812 1.8711-0.82812 3.3281 0 1.4609 0.27344 2.5742 0.82812 3.3438 0.55078 0.76172 1.3477 1.1406 2.3906 1.1406z"/>
  </symbol>
  <symbol id="i" overflow="visible">
   <path d="m10.5-3.1562c1.0508 0 1.8516-0.37891 2.4062-1.1406 0.55078-0.76953 0.82812-1.8828 0.82812-3.3438 0-1.457-0.27734-2.5664-0.82812-3.3281-0.55469-0.76953-1.3555-1.1562-2.4062-1.1562-1.0547 0-1.8594 0.38672-2.4219 1.1562-0.55469 0.77344-0.82812 1.8828-0.82812 3.3281 0 1.4492 0.27344 2.5586 0.82812 3.3281 0.5625 0.77344 1.3672 1.1562 2.4219 1.1562zm-3.25-9.9219c0.67578-0.88281 1.4219-1.5391 2.2344-1.9688 0.82031-0.42578 1.7656-0.64062 2.8281-0.64062 1.8945 0 3.4453 0.75 4.6562 2.25 1.207 1.5 1.8125 3.4336 1.8125 5.7969 0 2.3555-0.60547 4.2812-1.8125 5.7812-1.2109 1.5-2.7617 2.25-4.6562 2.25-1.0625 0-2.0078-0.21094-2.8281-0.625-0.8125-0.42578-1.5586-1.0859-2.2344-1.9844v2.2188h-4.8906v-21.281h4.8906z"/>
  </symbol>
  <symbol id="h" overflow="visible">
   <path d="m0.34375-15.312h4.8906l4.125 10.391 3.5-10.391h4.8906l-6.4375 16.766c-0.64844 1.6953-1.4023 2.8828-2.2656 3.5625-0.86719 0.6875-2 1.0312-3.4062 1.0312h-2.8438v-3.2188h1.5312c0.83203 0 1.4375-0.13672 1.8125-0.40625 0.38281-0.26172 0.67969-0.73047 0.89062-1.4062l0.14062-0.42188z"/>
  </symbol>
  <symbol id="g" overflow="visible">
   <path d="m2.5781-20.406h5.25v20.406h-5.25z"/>
  </symbol>
  <symbol id="e" overflow="visible">
   <path d="m14.719-14.828v3.9844c-0.65625-0.45703-1.3242-0.79688-2-1.0156-0.66797-0.21875-1.3594-0.32812-2.0781-0.32812-1.3672 0-2.4336 0.40234-3.2031 1.2031-0.76172 0.79297-1.1406 1.9062-1.1406 3.3438 0 1.4297 0.37891 2.543 1.1406 3.3438 0.76953 0.79297 1.8359 1.1875 3.2031 1.1875 0.75781 0 1.4844-0.10938 2.1719-0.32812 0.6875-0.22656 1.3203-0.56641 1.9062-1.0156v4c-0.76172 0.28125-1.5391 0.48828-2.3281 0.625-0.78125 0.14453-1.5742 0.21875-2.375 0.21875-2.7617 0-4.9219-0.70703-6.4844-2.125-1.5547-1.4141-2.3281-3.3828-2.3281-5.9062 0-2.5312 0.77344-4.5039 2.3281-5.9219 1.5625-1.4141 3.7227-2.125 6.4844-2.125 0.80078 0 1.5938 0.074219 2.375 0.21875 0.78125 0.13672 1.5547 0.35156 2.3281 0.64062z"/>
  </symbol>
  <symbol id="b" overflow="visible">
   <path d="m9.6406-12.188c-1.0859 0-1.9141 0.39062-2.4844 1.1719-0.57422 0.78125-0.85938 1.9062-0.85938 3.375s0.28516 2.5938 0.85938 3.375c0.57031 0.77344 1.3984 1.1562 2.4844 1.1562 1.0625 0 1.875-0.38281 2.4375-1.1562 0.57031-0.78125 0.85938-1.9062 0.85938-3.375s-0.28906-2.5938-0.85938-3.375c-0.5625-0.78125-1.375-1.1719-2.4375-1.1719zm0-3.5c2.6328 0 4.6914 0.71484 6.1719 2.1406 1.4766 1.418 2.2188 3.3867 2.2188 5.9062 0 2.5117-0.74219 4.4805-2.2188 5.9062-1.4805 1.418-3.5391 2.125-6.1719 2.125-2.6484 0-4.7148-0.70703-6.2031-2.125-1.4922-1.4258-2.2344-3.3945-2.2344-5.9062 0-2.5195 0.74219-4.4883 2.2344-5.9062 1.4883-1.4258 3.5547-2.1406 6.2031-2.1406z"/>
  </symbol>
  <symbol id="f" overflow="visible">
   <path d="m17.75-9.3281v9.3281h-4.9219v-7.1406c0-1.3203-0.03125-2.2344-0.09375-2.7344s-0.16797-0.86719-0.3125-1.1094c-0.1875-0.3125-0.44922-0.55469-0.78125-0.73438-0.32422-0.17578-0.69531-0.26562-1.1094-0.26562-1.0234 0-1.8242 0.39844-2.4062 1.1875-0.58594 0.78125-0.875 1.8711-0.875 3.2656v7.5312h-4.8906v-15.312h4.8906v2.2344c0.73828-0.88281 1.5195-1.5391 2.3438-1.9688 0.83203-0.42578 1.75-0.64062 2.75-0.64062 1.7695 0 3.1133 0.54688 4.0312 1.6406 0.91406 1.0859 1.375 2.6562 1.375 4.7188z"/>
  </symbol>
  <symbol id="s" overflow="visible">
   <path d="m2.3594-15.312h4.8906v15.312h-4.8906zm0-5.9688h4.8906v4h-4.8906z"/>
  </symbol>
  <symbol id="r" overflow="visible">
   <path d="m12.422-21.281v3.2188h-2.7031c-0.6875 0-1.1719 0.125-1.4531 0.375-0.27344 0.25-0.40625 0.6875-0.40625 1.3125v1.0625h4.1875v3.5h-4.1875v11.812h-4.8906v-11.812h-2.4375v-3.5h2.4375v-1.0625c0-1.6641 0.46094-2.8984 1.3906-3.7031 0.92578-0.80078 2.3672-1.2031 4.3281-1.2031z"/>
  </symbol>
  <symbol id="q" overflow="visible">
   <path d="m16.547-12.766c0.61328-0.94531 1.3477-1.6719 2.2031-2.1719 0.85156-0.5 1.7891-0.75 2.8125-0.75 1.7578 0 3.0977 0.54688 4.0156 1.6406 0.92578 1.0859 1.3906 2.6562 1.3906 4.7188v9.3281h-4.9219v-7.9844-0.35938c0.007813-0.13281 0.015625-0.32031 0.015625-0.5625 0-1.082-0.16406-1.8633-0.48438-2.3438-0.3125-0.48828-0.82422-0.73438-1.5312-0.73438-0.92969 0-1.6484 0.38672-2.1562 1.1562-0.51172 0.76172-0.77344 1.8672-0.78125 3.3125v7.5156h-4.9219v-7.9844c0-1.6953-0.14844-2.7852-0.4375-3.2656-0.29297-0.48828-0.8125-0.73438-1.5625-0.73438-0.9375 0-1.6641 0.38672-2.1719 1.1562-0.51172 0.76172-0.76562 1.8594-0.76562 3.2969v7.5312h-4.9219v-15.312h4.9219v2.2344c0.60156-0.86328 1.2891-1.5156 2.0625-1.9531 0.78125-0.4375 1.6406-0.65625 2.5781-0.65625 1.0625 0 2 0.25781 2.8125 0.76562 0.8125 0.51172 1.4258 1.2305 1.8438 2.1562z"/>
  </symbol>
  <symbol id="p" overflow="visible">
   <path d="m17.75-9.3281v9.3281h-4.9219v-7.1094c0-1.3438-0.03125-2.2656-0.09375-2.7656s-0.16797-0.86719-0.3125-1.1094c-0.1875-0.3125-0.44922-0.55469-0.78125-0.73438-0.32422-0.17578-0.69531-0.26562-1.1094-0.26562-1.0234 0-1.8242 0.39844-2.4062 1.1875-0.58594 0.78125-0.875 1.8711-0.875 3.2656v7.5312h-4.8906v-21.281h4.8906v8.2031c0.73828-0.88281 1.5195-1.5391 2.3438-1.9688 0.83203-0.42578 1.75-0.64062 2.75-0.64062 1.7695 0 3.1133 0.54688 4.0312 1.6406 0.91406 1.0859 1.375 2.6562 1.375 4.7188z"/>
  </symbol>
  <symbol id="o" overflow="visible">
   <path d="m2.5781-20.406h5.875l7.4219 14v-14h4.9844v20.406h-5.875l-7.4219-14v14h-4.9844z"/>
  </symbol>
  <symbol id="n" overflow="visible">
   <path d="m2.1875-5.9688v-9.3438h4.9219v1.5312c0 0.83594-0.007813 1.875-0.015625 3.125-0.011719 1.25-0.015625 2.0859-0.015625 2.5 0 1.2422 0.03125 2.1328 0.09375 2.6719 0.070313 0.54297 0.17969 0.93359 0.32812 1.1719 0.20703 0.32422 0.47266 0.57422 0.79688 0.75 0.32031 0.16797 0.69141 0.25 1.1094 0.25 1.0195 0 1.8203-0.39062 2.4062-1.1719 0.58203-0.78125 0.875-1.8672 0.875-3.2656v-7.5625h4.8906v15.312h-4.8906v-2.2188c-0.74219 0.89844-1.5234 1.5586-2.3438 1.9844-0.82422 0.41406-1.7344 0.625-2.7344 0.625-1.7617 0-3.1055-0.53906-4.0312-1.625-0.92969-1.082-1.3906-2.6602-1.3906-4.7344z"/>
  </symbol>
  <symbol id="m" overflow="visible">
   <path d="m2.5781-20.406h8.7344c2.5938 0 4.582 0.57812 5.9688 1.7344 1.3945 1.1484 2.0938 2.7891 2.0938 4.9219 0 2.1367-0.69922 3.7812-2.0938 4.9375-1.3867 1.1562-3.375 1.7344-5.9688 1.7344h-3.4844v7.0781h-5.25zm5.25 3.8125v5.7031h2.9219c1.0195 0 1.8047-0.25 2.3594-0.75 0.5625-0.5 0.84375-1.2031 0.84375-2.1094 0-0.91406-0.28125-1.6172-0.84375-2.1094-0.55469-0.48828-1.3398-0.73438-2.3594-0.73438z"/>
  </symbol>
  <symbol id="l" overflow="visible">
   <path d="m2.3594-15.312h4.8906v15.031c0 2.0508-0.49609 3.6172-1.4844 4.7031-0.98047 1.082-2.4062 1.625-4.2812 1.625h-2.4219v-3.2188h0.85938c0.92578 0 1.5625-0.21094 1.9062-0.625 0.35156-0.41797 0.53125-1.2461 0.53125-2.4844zm0-5.9688h4.8906v4h-4.8906z"/>
  </symbol>
 </defs>
 <g>
  <path d="m608.59 178.59c-2.7344-5.9297-15.141-30.648-36.754-41.848-0.035156-0.20313-0.074219-0.39844-0.11328-0.58984l-0.15234-0.77734c-0.21875-1.1211-0.4375-2.1953-0.66016-3.207l-0.19531-0.89453c-0.56641-2.5312-1.1484-4.793-1.7266-6.7266l-0.21094-0.72656c-0.26172-0.85156-0.52734-1.6641-0.85156-2.6094l-0.11719-0.35156c-0.68359-1.9141-1.3789-3.5547-2.0664-4.9375l-0.26172-0.50781c-0.34766-0.67187-0.69922-1.293-1.2422-2.1719-0.48828-0.76172-0.98438-1.4492-1.2656-1.7734l-0.29297-0.35938c-0.51562-0.61719-1.0234-1.1406-1.5-1.5859l-0.4375-0.38672c-0.58203-0.5-1.1641-0.92969-1.7461-1.2891l-0.70703-0.46875-0.375-0.125c-0.55469-0.26172-1.1328-0.49219-1.7656-0.6875l-0.58203-0.15625c-0.67188-0.16797-1.3438-0.27344-1.9922-0.3125l-0.78516-0.027344c-1.625 0-3.2266 0.33594-4.7227 0.97266l-0.41016 0.19141c-0.58203 0.26172-1.1758 0.58984-1.4453 0.77734l-0.52734 0.32031c-1.082 0.72656-2.1172 1.6016-3.3359 2.8828-0.41016 0.4375-0.81641 0.90234-1.3164 1.5117-0.78906 0.97266-1.5664 2.0898-2.4961 3.5273-0.65625 1.043-1.3047 2.1562-1.9414 3.3203l-0.18359 0.34766c-0.027344 0.050781-0.054688 0.10156-0.078125 0.14453l-0.21875 0.41406c-0.23047 0.42969-0.46484 0.89453-0.74609 1.4727-1.8594 3.7344-3.7422 8.2227-5.6016 13.355-4.207 1.7344-8.4297 4.0039-12.582 6.7773-22.785 15.188-30.723 31.859-37.109 45.254-7.5156 15.785-11.66 24.484-37.25 24.484-3.8867 0-8.2656-0.22266-12.988-0.65625-70.832-6.6016-135.85-12.258-136.5-12.312l-0.89062-0.027344c-2.418 0-18.336 0.375-35.734 9.2734-6.6484 2.1211-53.297 20.035-95.828 115.48-20.855 46.789-33.355 48.184-35.66 48.133-6.3047-0.47656-11.91-13.211-13.492-18.938l-0.72656-2.6758-2.2969-1.5586c-1.1016-0.74609-10.988-7.1289-20.184-2.8945-6.0312 2.7773-9.6211 8.8711-10.664 18.121-1.1367 10.078 2.2188 20.105 9.6992 28.996 8.4336 10.031 21.469 17.449 31.707 18.059 0.73828 0.042969 1.5195 0.074219 2.3203 0.074219 15.973 0 44.645-9.6133 70.824-67.504 6.25-13.82 11.555-23.402 15.82-30.031 0.089844 2.6953 0.22266 5.4375 0.41016 8.2227l-0.039062 0.55859c-3.2461 40.941-10.875 51.844-14.004 54.609l-3.5898 3.8867 28.953 98.164h96.391l0.54297-7.7656c1.1992-15.379-2.3242-26.672-10.465-32.457-7.2344-5.1406-15.934-4.9102-22.055-3.6328-8.875-28.242 1.2617-56.422 6.6406-68.305 17.832 6.4922 43.707 13.109 74.895 13.109 21.531 0 42.992-3.2031 63.895-9.5664 3.6055 11.168 9.7656 34.266 5.8125 51.398-6.668 28.926 10.039 52.41 10.758 53.363l2.2461 3.8594h107.1l-0.39844-8.7305c-0.73828-14.449-5.4102-25.258-13.887-31-6.832-4.6328-14.508-5.2188-19.941-4.6914-14.055-42.117 0.5-84.027 3.3945-91.609 26.332-26.941 39.082-45.641 41.539-104.52 13.598-3.0977 44.469-12.129 50.754-31.062 2.1211-6.4219 2.3008-16.535-8.5898-28.598zm-429.58 158.63c-24.695 54.609-49.477 59.184-58.855 58.652-5.3828-0.32422-14.758-5.1875-21.129-12.75-3.3203-3.9531-7.1172-10.23-6.2773-17.668 0.51953-4.5977 1.7422-6.0586 2.0391-6.1992 0.54688-0.26953 2.0273 0.050782 3.4961 0.63672 2.6367 7.6836 10.406 25.559 25.789 26.746 16.445 1.2812 32.609-16.816 50.508-56.957 9.6758-21.711 19.516-39.09 28.934-53.027 2.8633-2.0234 6.5742-3.7852 6.1328 1.1094-0.57812 6.3516-4.4258 13.637-5.8672 16.184-6.6523 7.7617-14.723 21.066-24.77 43.273zm90.098 102.55c-4.0195-4.457-9.4531-6.8984-15.758-7.1133-0.64844-15.074-0.035156-50.098 17.051-74.996 1.832 0.93359 4.082 2.0312 6.6914 3.2188-6.6133 14.617-18.07 47.641-5.9688 81.512-0.61328-0.90625-1.2695-1.7891-2.0156-2.6211zm13.641 11.234c2.5312-1.082 10.695-3.6562 15.023-0.55469 2.5273 1.8086 4 5.9414 4.3125 11.543h-25.168c-0.12891-5.6016-0.45312-5.4023-1.1523-8.5586l0.054688 0.30078zm236.25-1.0117c0.085937-0.023438 8.3086-2.8125 14.102 1.1719 3.3594 2.3203 5.2266 5.2305 6.2266 10.832h-29.477c1.0195-5.6016 1.0586-13.355-2.9609-19.426-2.4688-3.7227-7.3125-7.9336-16.566-8.7969-0.875-9.5078-1.4766-28.594 4.5078-47.785 1.6953-2.2227 4.8672-5.0195 5.6836 3.4062-0.63281 17.039 1.3789 36.574 9.1719 56.145l2.6484 6.5469zm83.973-247.57c-3.1289 9.4531-23.816 17.574-40.051 21.219l0.054688 0.039062s-9.957 0.94531-11.414 11.25c-2.1914 62.133-14.645 74.633-47.074 107.04l-1.7031 1.7148c-37.172 37.168-26.906 96.562-26.453 99.062l1.2227 6.7188 6.7812-0.54297c0.92578-0.078125 1.793-0.050781 2.6133-0.050781 2.6641 0 6.1211 0.23438 7.4531 2.2188 1.5469 2.3242 1.2148 5.2812 0.26953 10.879h-38.215c-3.4727-5.6016-10.141-20.363-6.2344-37.25 4.5547-19.77-1.4883-44.359-5.5938-57.598-0.55469-0.70703-1.0547-1.5742-1.4766-2.8242-3.1875-9.375-11.742-9.6484-16.594-8.9883-19.848 6.1602-40.219 9.3398-60.648 9.3398-44.234 0-77.508-14.695-89.145-20.637-9.2383-3.9492-17.137 3.6953-19.621 6.5117-24.293 36.895-18.418 88.922-18.137 91.27l1.0039 8.3828 8.1914-1.9375c1.5664-0.37891 3.0117-0.51562 4.2852-0.51562 3.1367 0 4.582 0.97266 5.4922 1.9805 2.5703 2.8398 3.5859 6.6602 3.9023 12.258h-30.746l-15.293-51.262c-0.042969-0.77344-0.50781-2.3281-1.5586-5.3555-4.5547-13.156-1.9375-26.188-0.027344-32.738 4.5039-11.473 7.5703-27.875 9.2852-49.43l0.12891-1.6016-0.039062-0.55859c-2.6992-38.645 4.6758-67.609 21.918-86.094 18.844-20.203 43.242-21.129 46.809-21.156 4.9609 0.42578 67.84 5.918 136.11 12.242 5.1875 0.48047 10.02 0.72656 14.363 0.72656 35.051-0.003906 42.688-16.039 50.773-33.02 5.8867-12.344 12.543-26.336 31.891-39.234 4.2344-2.8281 8.4727-4.9688 12.594-6.3789l3.4727-1.1797 1.1914-3.4727c1.8594-5.4258 3.7109-10.035 5.5039-13.789 0.63672-0.83594 4.5547-5.5547 6.6758 0.49219 0.042968 0.125 0.11328 0.20703 0.15625 0.32422 0.33984 1.2656 0.67187 2.5938 1.0078 4.0898l0.15625 0.69922c0.20312 0.94141 0.41016 1.9219 0.67188 3.2773l0.085937 0.41016c0.24609 1.2812 0.48828 2.6133 0.67578 3.7227l0.55469 4.375 3.9805 1.6758c20.914 8.8203 33.02 36.664 33.129 36.938l0.52734 1.2422 0.92578 0.97266c5.3906 5.7188 7.457 10.602 6.1641 14.539z"/>
  <use x="70" y="644" xlink:href="#t"/>
  <use x="90.550781" y="644" xlink:href="#d"/>
  <use x="104.359375" y="644" xlink:href="#a"/>
  <use x="123.347656" y="644" xlink:href="#k"/>
  <use x="142.242188" y="644" xlink:href="#c"/>
  <use x="155.628906" y="644" xlink:href="#a"/>
  <use x="174.617188" y="644" xlink:href="#j"/>
  <use x="204.410156" y="644" xlink:href="#i"/>
  <use x="224.453125" y="644" xlink:href="#h"/>
  <use x="252.453125" y="644" xlink:href="#g"/>
  <use x="262.867188" y="644" xlink:href="#e"/>
  <use x="279.46875" y="644" xlink:href="#b"/>
  <use x="298.703125" y="644" xlink:href="#f"/>
  <use x="318.636719" y="644" xlink:href="#s"/>
  <use x="328.234375" y="644" xlink:href="#e"/>
  <use x="70" y="672" xlink:href="#r"/>
  <use x="82.183594" y="672" xlink:href="#d"/>
  <use x="95.992188" y="672" xlink:href="#b"/>
  <use x="115.226562" y="672" xlink:href="#q"/>
  <use x="154.152344" y="672" xlink:href="#c"/>
  <use x="167.535156" y="672" xlink:href="#p"/>
  <use x="187.46875" y="672" xlink:href="#a"/>
  <use x="216.207031" y="672" xlink:href="#o"/>
  <use x="239.640625" y="672" xlink:href="#b"/>
  <use x="258.878906" y="672" xlink:href="#n"/>
  <use x="278.8125" y="672" xlink:href="#f"/>
  <use x="308.492188" y="672" xlink:href="#m"/>
  <use x="329.015625" y="672" xlink:href="#d"/>
  <use x="342.820312" y="672" xlink:href="#b"/>
  <use x="362.058594" y="672" xlink:href="#l"/>
  <use x="371.65625" y="672" xlink:href="#a"/>
  <use x="390.648438" y="672" xlink:href="#e"/>
  <use x="407.242188" y="672" xlink:href="#c"/>
 </g>
</svg>
