<svg width="755" height="493" viewBox="0 0 755 493" fill="none" xmlns="http://www.w3.org/2000/svg">
<path d="M347.725 298.246C344.186 298.599 338.03 298.64 336.717 294.783C336.348 293.833 336.019 293.053 335.533 291.706C331.865 281.903 323.283 258.923 302.409 257C297.093 256.498 291.752 256.311 286.414 256.435C287.464 247.776 285.81 239.012 281.665 231.264C280.252 228.95 277.403 227.839 274.716 228.559C273.486 228.895 261.946 232.286 240.962 248.307H240.965C227.168 258.862 215.937 272.202 208.061 287.385C201.45 300.004 202.766 325.135 203.641 341.768L203.867 346.289H203.864C204.019 349.562 206.896 352.094 210.295 351.948C213.691 351.799 216.323 349.027 216.168 345.757L215.911 341.186C215.201 327.686 213.888 302.557 219.032 292.736C226.103 279.082 236.194 267.083 248.592 257.583C256.146 251.605 264.325 246.398 272.999 242.05C275.102 249.048 276.521 262.926 263.396 278.988H263.393C261.293 281.558 261.754 285.28 264.423 287.305C273.445 293.879 281.419 272.959 283.527 268.419V268.417C289.429 268.105 295.348 268.238 301.232 268.813C315.914 270.761 321.397 289.656 325.102 298.698C328.006 306.894 336.262 311.065 347.862 310.151C352.194 326.568 348.781 345.303 329.62 347.049C319.973 347.713 310.69 350.851 302.731 356.144C294.77 361.434 288.431 368.68 284.363 377.13C283.118 380.122 284.586 383.522 287.667 384.784C290.745 386.046 294.307 384.704 295.682 381.767C302.17 368.719 315.384 359.991 330.358 358.859C337.215 358.479 343.774 356.035 349.112 351.872C354.45 347.709 358.298 342.039 360.112 335.658C362.458 327.211 364.918 296.706 347.725 298.247L347.725 298.246Z" fill="black" fill-opacity="0.53"/>
<path d="M373.794 191.92C370.464 192.56 368.301 195.678 368.962 198.885C372.603 216.474 379.383 249.205 371.296 271.102H371.293C370.155 274.185 371.828 277.573 375.029 278.67C378.231 279.766 381.749 278.157 382.888 275.074C392.111 250.091 384.901 215.275 381.025 196.574C380.713 195.031 379.772 193.67 378.413 192.799C377.054 191.926 375.392 191.612 373.793 191.923L373.794 191.92Z" fill="#090909" fill-opacity="0.54"/>
<path d="M519.239 190.925C507.252 187.848 475.143 178.048 464.759 168.344C463.84 161.236 459.641 139.148 442.505 132.401C365.535 101.649 313.025 132.098 296.225 199.46H296.228C295.802 200.992 296.033 202.623 296.869 203.993C297.704 205.359 299.071 206.345 300.671 206.734C302.267 207.12 303.958 206.874 305.365 206.051C306.773 205.227 307.78 203.893 308.157 202.35C312.3 185.12 320.338 168.983 331.701 155.089C361.721 120.295 411.088 132.812 437.84 143.367C448.623 147.62 452.232 165.016 452.711 171.35C457.746 186.046 500.428 197.722 511.525 201.158H511.528C511.465 201.822 511.368 202.48 511.233 203.133L502.428 201.229C499.113 200.513 495.82 202.522 495.076 205.715C494.332 208.908 496.418 212.076 499.733 212.793L508.962 214.768C508.284 230.023 499.433 243.846 485.584 251.276H435.719C431.23 251.284 426.851 252.598 423.152 255.042C419.453 257.489 416.606 260.952 414.984 264.983C404.265 292.889 406.073 323.832 419.971 350.409C421.627 353.266 425.375 354.288 428.341 352.696C431.308 351.101 432.372 347.492 430.716 344.634C418.764 321.076 417.236 293.858 426.479 269.195C427.964 265.528 431.631 263.112 435.719 263.112H487.06C487.956 263.112 488.84 262.922 489.652 262.558C499.407 257.786 507.558 250.452 513.159 241.402C518.761 232.351 521.587 221.959 521.307 211.426C522.508 209.302 527.872 193.209 519.238 190.929L519.239 190.925Z" fill="black" fill-opacity="0.53"/>
<path d="M154.262 420.047H164.342L183.135 471.167H172.91L168.158 458.423H150.302L145.622 471.167H135.398L154.262 420.047ZM166.359 451.439L159.302 430.343L151.958 451.439H166.359ZM186.083 418.607H195.731V459.071C195.731 460.799 196.019 461.975 196.595 462.599C197.171 463.175 197.963 463.463 198.971 463.463C199.739 463.463 200.531 463.367 201.347 463.175C202.163 462.983 202.883 462.743 203.507 462.455L204.803 469.799C203.507 470.423 201.995 470.903 200.267 471.239C198.539 471.575 196.979 471.743 195.587 471.743C192.563 471.743 190.211 470.951 188.531 469.367C186.899 467.735 186.083 465.431 186.083 462.455V418.607ZM224.99 471.887C221.918 471.887 219.158 471.383 216.71 470.375C214.262 469.319 212.174 467.879 210.446 466.055C208.766 464.231 207.47 462.143 206.558 459.791C205.646 457.439 205.19 454.967 205.19 452.375C205.19 449.735 205.646 447.239 206.558 444.887C207.47 442.535 208.766 440.447 210.446 438.623C212.174 436.799 214.262 435.383 216.71 434.375C219.158 433.319 221.918 432.791 224.99 432.791C228.062 432.791 230.798 433.319 233.198 434.375C235.646 435.383 237.734 436.799 239.462 438.623C241.19 440.447 242.486 442.535 243.35 444.887C244.262 447.239 244.718 449.735 244.718 452.375C244.718 454.967 244.262 457.439 243.35 459.791C242.486 462.143 241.19 464.231 239.462 466.055C237.782 467.879 235.718 469.319 233.27 470.375C230.822 471.383 228.062 471.887 224.99 471.887ZM215.126 452.375C215.126 454.583 215.558 456.551 216.422 458.279C217.286 459.959 218.462 461.279 219.95 462.239C221.438 463.199 223.118 463.679 224.99 463.679C226.814 463.679 228.47 463.199 229.958 462.239C231.446 461.231 232.622 459.887 233.486 458.207C234.398 456.479 234.854 454.511 234.854 452.303C234.854 450.143 234.398 448.199 233.486 446.471C232.622 444.743 231.446 443.399 229.958 442.439C228.47 441.479 226.814 440.999 224.99 440.999C223.118 440.999 221.438 441.503 219.95 442.511C218.462 443.471 217.286 444.815 216.422 446.543C215.558 448.223 215.126 450.167 215.126 452.375ZM246.694 485.279C244.918 485.279 243.214 484.991 241.582 484.415C239.95 483.887 238.462 483.047 237.118 481.895L241.294 475.343C241.822 475.919 242.47 476.327 243.238 476.567C244.006 476.807 244.774 476.927 245.542 476.927C246.406 476.927 247.174 476.711 247.846 476.279C248.566 475.895 249.118 475.343 249.502 474.623C249.934 473.903 250.15 473.087 250.15 472.175V433.439H259.798V471.455C259.798 474.143 259.198 476.543 257.998 478.655C256.846 480.767 255.286 482.399 253.318 483.551C251.398 484.703 249.19 485.279 246.694 485.279ZM250.15 428.183V418.607H259.798V428.183H250.15ZM264.532 460.007C264.532 457.559 265.204 455.423 266.548 453.599C267.94 451.727 269.86 450.287 272.308 449.279C274.756 448.271 277.564 447.767 280.732 447.767C282.316 447.767 283.924 447.887 285.556 448.127C287.188 448.367 288.604 448.751 289.804 449.279V447.263C289.804 444.863 289.084 443.015 287.644 441.719C286.252 440.423 284.164 439.775 281.38 439.775C279.316 439.775 277.348 440.135 275.476 440.855C273.604 441.575 271.636 442.631 269.572 444.023L266.476 437.687C268.972 436.055 271.516 434.831 274.108 434.015C276.748 433.199 279.508 432.791 282.388 432.791C287.764 432.791 291.94 434.135 294.916 436.823C297.94 439.511 299.452 443.351 299.452 448.343V460.367C299.452 461.375 299.62 462.095 299.956 462.527C300.34 462.959 300.94 463.223 301.756 463.319V471.167C300.892 471.311 300.1 471.431 299.38 471.527C298.708 471.623 298.132 471.671 297.652 471.671C295.732 471.671 294.268 471.239 293.26 470.375C292.3 469.511 291.7 468.455 291.46 467.207L291.244 465.263C289.612 467.375 287.572 469.007 285.124 470.159C282.676 471.311 280.18 471.887 277.636 471.887C275.14 471.887 272.884 471.383 270.868 470.375C268.9 469.319 267.34 467.903 266.188 466.127C265.084 464.303 264.532 462.263 264.532 460.007ZM288.004 461.951C288.532 461.375 288.964 460.799 289.3 460.223C289.636 459.647 289.804 459.119 289.804 458.639V454.823C288.652 454.343 287.404 453.983 286.06 453.743C284.716 453.455 283.444 453.311 282.244 453.311C279.748 453.311 277.684 453.863 276.052 454.967C274.468 456.023 273.676 457.439 273.676 459.215C273.676 460.175 273.94 461.087 274.468 461.951C274.996 462.815 275.764 463.511 276.772 464.039C277.78 464.567 278.98 464.831 280.372 464.831C281.812 464.831 283.228 464.567 284.62 464.039C286.012 463.463 287.14 462.767 288.004 461.951ZM349.651 471.167V437.615L336.547 462.599H331.003L317.899 437.615V471.167H307.963V420.047H318.619L333.739 449.135L349.003 420.047H359.587V471.167H349.651ZM364.87 460.007C364.87 457.559 365.542 455.423 366.886 453.599C368.278 451.727 370.198 450.287 372.646 449.279C375.094 448.271 377.902 447.767 381.07 447.767C382.654 447.767 384.262 447.887 385.894 448.127C387.526 448.367 388.942 448.751 390.142 449.279V447.263C390.142 444.863 389.422 443.015 387.982 441.719C386.59 440.423 384.502 439.775 381.718 439.775C379.654 439.775 377.686 440.135 375.814 440.855C373.942 441.575 371.974 442.631 369.91 444.023L366.814 437.687C369.31 436.055 371.854 434.831 374.446 434.015C377.086 433.199 379.846 432.791 382.726 432.791C388.102 432.791 392.278 434.135 395.254 436.823C398.278 439.511 399.79 443.351 399.79 448.343V460.367C399.79 461.375 399.958 462.095 400.294 462.527C400.678 462.959 401.278 463.223 402.094 463.319V471.167C401.23 471.311 400.438 471.431 399.718 471.527C399.046 471.623 398.47 471.671 397.99 471.671C396.07 471.671 394.606 471.239 393.598 470.375C392.638 469.511 392.038 468.455 391.798 467.207L391.582 465.263C389.95 467.375 387.91 469.007 385.462 470.159C383.014 471.311 380.518 471.887 377.974 471.887C375.478 471.887 373.222 471.383 371.206 470.375C369.238 469.319 367.678 467.903 366.526 466.127C365.422 464.303 364.87 462.263 364.87 460.007ZM388.342 461.951C388.87 461.375 389.302 460.799 389.638 460.223C389.974 459.647 390.142 459.119 390.142 458.639V454.823C388.99 454.343 387.742 453.983 386.398 453.743C385.054 453.455 383.782 453.311 382.582 453.311C380.086 453.311 378.022 453.863 376.39 454.967C374.806 456.023 374.014 457.439 374.014 459.215C374.014 460.175 374.278 461.087 374.806 461.951C375.334 462.815 376.102 463.511 377.11 464.039C378.118 464.567 379.318 464.831 380.71 464.831C382.15 464.831 383.566 464.567 384.958 464.039C386.35 463.463 387.478 462.767 388.342 461.951ZM421.262 471.887C418.046 471.887 414.974 471.359 412.046 470.303C409.118 469.247 406.598 467.687 404.486 465.623L407.942 459.359C410.198 461.183 412.406 462.527 414.566 463.391C416.774 464.255 418.886 464.687 420.902 464.687C422.774 464.687 424.262 464.351 425.366 463.679C426.518 463.007 427.094 461.999 427.094 460.655C427.094 459.743 426.782 459.047 426.158 458.567C425.534 458.039 424.622 457.583 423.422 457.199C422.27 456.815 420.854 456.383 419.174 455.903C416.39 454.991 414.062 454.103 412.19 453.239C410.318 452.375 408.902 451.295 407.942 449.999C407.03 448.655 406.574 446.951 406.574 444.887C406.574 442.391 407.198 440.255 408.446 438.479C409.742 436.655 411.518 435.239 413.774 434.231C416.078 433.223 418.766 432.719 421.838 432.719C424.526 432.719 427.07 433.151 429.47 434.015C431.87 434.831 434.054 436.175 436.022 438.047L432.134 444.167C430.214 442.679 428.39 441.599 426.662 440.927C424.934 440.207 423.182 439.847 421.406 439.847C420.398 439.847 419.438 439.967 418.526 440.207C417.662 440.447 416.942 440.855 416.366 441.431C415.838 441.959 415.574 442.727 415.574 443.735C415.574 444.647 415.814 445.367 416.294 445.895C416.822 446.375 417.59 446.807 418.598 447.191C419.654 447.575 420.926 448.007 422.414 448.487C425.438 449.351 427.982 450.239 430.046 451.151C432.158 452.063 433.742 453.191 434.798 454.535C435.854 455.831 436.382 457.631 436.382 459.935C436.382 463.679 435.014 466.607 432.278 468.719C429.542 470.831 425.87 471.887 421.262 471.887ZM459.072 471.887C456 471.887 453.24 471.383 450.792 470.375C448.344 469.319 446.256 467.879 444.528 466.055C442.8 464.183 441.456 462.071 440.496 459.719C439.584 457.367 439.128 454.895 439.128 452.303C439.128 448.751 439.92 445.511 441.504 442.583C443.136 439.607 445.44 437.231 448.416 435.455C451.392 433.679 454.92 432.791 459 432.791C463.08 432.791 466.584 433.679 469.512 435.455C472.44 437.231 474.624 439.559 476.064 442.439L466.632 445.319C465.816 443.927 464.736 442.871 463.392 442.151C462.048 441.383 460.56 440.999 458.928 440.999C457.104 440.999 455.424 441.479 453.888 442.439C452.4 443.351 451.224 444.671 450.36 446.399C449.496 448.079 449.064 450.047 449.064 452.303C449.064 454.511 449.496 456.479 450.36 458.207C451.272 459.887 452.472 461.231 453.96 462.239C455.448 463.199 457.104 463.679 458.928 463.679C460.08 463.679 461.16 463.487 462.168 463.103C463.224 462.719 464.16 462.191 464.976 461.519C465.792 460.847 466.392 460.079 466.776 459.215L476.208 462.095C475.344 463.967 474.072 465.647 472.392 467.135C470.76 468.623 468.816 469.799 466.56 470.663C464.352 471.479 461.856 471.887 459.072 471.887ZM497.777 471.887C494.705 471.887 491.945 471.383 489.497 470.375C487.049 469.319 484.961 467.879 483.233 466.055C481.553 464.231 480.257 462.143 479.345 459.791C478.433 457.439 477.977 454.967 477.977 452.375C477.977 449.735 478.433 447.239 479.345 444.887C480.257 442.535 481.553 440.447 483.233 438.623C484.961 436.799 487.049 435.383 489.497 434.375C491.945 433.319 494.705 432.791 497.777 432.791C500.849 432.791 503.585 433.319 505.985 434.375C508.433 435.383 510.521 436.799 512.249 438.623C513.977 440.447 515.273 442.535 516.137 444.887C517.049 447.239 517.505 449.735 517.505 452.375C517.505 454.967 517.049 457.439 516.137 459.791C515.273 462.143 513.977 464.231 512.249 466.055C510.569 467.879 508.505 469.319 506.057 470.375C503.609 471.383 500.849 471.887 497.777 471.887ZM487.913 452.375C487.913 454.583 488.345 456.551 489.209 458.279C490.073 459.959 491.249 461.279 492.737 462.239C494.225 463.199 495.905 463.679 497.777 463.679C499.601 463.679 501.257 463.199 502.745 462.239C504.233 461.231 505.409 459.887 506.273 458.207C507.185 456.479 507.641 454.511 507.641 452.303C507.641 450.143 507.185 448.199 506.273 446.471C505.409 444.743 504.233 443.399 502.745 442.439C501.257 441.479 499.601 440.999 497.777 440.999C495.905 440.999 494.225 441.503 492.737 442.511C491.249 443.471 490.073 444.815 489.209 446.543C488.345 448.223 487.913 450.167 487.913 452.375ZM544.623 469.223C543.807 469.559 542.823 469.943 541.671 470.375C540.519 470.807 539.271 471.143 537.927 471.383C536.631 471.671 535.311 471.815 533.967 471.815C532.191 471.815 530.559 471.503 529.071 470.879C527.583 470.255 526.383 469.271 525.471 467.927C524.607 466.535 524.175 464.735 524.175 462.527V440.855H519.207V433.439H524.175V421.199H533.823V433.439H541.743V440.855H533.823V459.287C533.871 460.583 534.231 461.519 534.903 462.095C535.575 462.671 536.415 462.959 537.423 462.959C538.431 462.959 539.415 462.791 540.375 462.455C541.335 462.119 542.103 461.831 542.679 461.591L544.623 469.223ZM545.616 460.007C545.616 457.559 546.288 455.423 547.632 453.599C549.024 451.727 550.944 450.287 553.392 449.279C555.84 448.271 558.648 447.767 561.816 447.767C563.4 447.767 565.008 447.887 566.64 448.127C568.272 448.367 569.688 448.751 570.888 449.279V447.263C570.888 444.863 570.168 443.015 568.728 441.719C567.336 440.423 565.248 439.775 562.464 439.775C560.4 439.775 558.432 440.135 556.56 440.855C554.688 441.575 552.72 442.631 550.656 444.023L547.56 437.687C550.056 436.055 552.6 434.831 555.192 434.015C557.832 433.199 560.592 432.791 563.472 432.791C568.848 432.791 573.024 434.135 576 436.823C579.024 439.511 580.536 443.351 580.536 448.343V460.367C580.536 461.375 580.704 462.095 581.04 462.527C581.424 462.959 582.024 463.223 582.84 463.319V471.167C581.976 471.311 581.184 471.431 580.464 471.527C579.792 471.623 579.216 471.671 578.736 471.671C576.816 471.671 575.352 471.239 574.344 470.375C573.384 469.511 572.784 468.455 572.544 467.207L572.328 465.263C570.696 467.375 568.656 469.007 566.208 470.159C563.76 471.311 561.264 471.887 558.72 471.887C556.224 471.887 553.968 471.383 551.952 470.375C549.984 469.319 548.424 467.903 547.272 466.127C546.168 464.303 545.616 462.263 545.616 460.007ZM569.088 461.951C569.616 461.375 570.048 460.799 570.384 460.223C570.72 459.647 570.888 459.119 570.888 458.639V454.823C569.736 454.343 568.488 453.983 567.144 453.743C565.8 453.455 564.528 453.311 563.328 453.311C560.832 453.311 558.768 453.863 557.136 454.967C555.552 456.023 554.76 457.439 554.76 459.215C554.76 460.175 555.024 461.087 555.552 461.951C556.08 462.815 556.848 463.511 557.856 464.039C558.864 464.567 560.064 464.831 561.456 464.831C562.896 464.831 564.312 464.567 565.704 464.039C567.096 463.463 568.224 462.767 569.088 461.951ZM602.007 471.887C598.791 471.887 595.719 471.359 592.791 470.303C589.863 469.247 587.343 467.687 585.231 465.623L588.687 459.359C590.943 461.183 593.151 462.527 595.311 463.391C597.519 464.255 599.631 464.687 601.647 464.687C603.519 464.687 605.007 464.351 606.111 463.679C607.263 463.007 607.839 461.999 607.839 460.655C607.839 459.743 607.527 459.047 606.903 458.567C606.279 458.039 605.367 457.583 604.167 457.199C603.015 456.815 601.599 456.383 599.919 455.903C597.135 454.991 594.807 454.103 592.935 453.239C591.063 452.375 589.647 451.295 588.687 449.999C587.775 448.655 587.319 446.951 587.319 444.887C587.319 442.391 587.943 440.255 589.191 438.479C590.487 436.655 592.263 435.239 594.519 434.231C596.823 433.223 599.511 432.719 602.583 432.719C605.271 432.719 607.815 433.151 610.215 434.015C612.615 434.831 614.799 436.175 616.767 438.047L612.879 444.167C610.959 442.679 609.135 441.599 607.407 440.927C605.679 440.207 603.927 439.847 602.151 439.847C601.143 439.847 600.183 439.967 599.271 440.207C598.407 440.447 597.687 440.855 597.111 441.431C596.583 441.959 596.319 442.727 596.319 443.735C596.319 444.647 596.559 445.367 597.039 445.895C597.567 446.375 598.335 446.807 599.343 447.191C600.399 447.575 601.671 448.007 603.159 448.487C606.183 449.351 608.727 450.239 610.791 451.151C612.903 452.063 614.487 453.191 615.543 454.535C616.599 455.831 617.127 457.631 617.127 459.935C617.127 463.679 615.759 466.607 613.023 468.719C610.287 470.831 606.615 471.887 602.007 471.887Z" fill="black" fill-opacity="0.54"/>
<ellipse cx="403.923" cy="210.352" rx="108.932" ry="105.176" fill="#9B9E9B" fill-opacity="0.25"/>
<ellipse cx="263.184" cy="304.26" rx="93.9073" ry="86.3947" fill="#D9C2AD" fill-opacity="0.33"/>
<path d="M560.718 112.043L382.917 0.967318C380.779 -0.322439 377.992 -0.322439 375.854 0.967318L198.074 112.03C196.386 113.091 195.365 114.817 195.327 116.671V144.658C195.327 147.748 198.106 150.252 201.53 150.252C204.958 150.252 207.736 147.748 207.736 144.658V119.589L379.386 12.3676L551.035 119.589V144.65C551.035 147.74 553.813 150.244 557.241 150.244C560.666 150.244 563.444 147.74 563.444 144.65V116.671C563.403 116.32 563.389 115.967 563.323 115.621C562.991 114.175 562.057 112.891 560.718 112.043Z" fill="black" fill-opacity="0.54"/>
</svg>
